<svg width="58" height="37" viewBox="0 0 58 37" fill="none" xmlns="http://www.w3.org/2000/svg">
<rect width="22.9745" height="7.43539" rx="3.71769" transform="matrix(-0.999995 -0.00331015 0.00369705 -0.999993 22.9744 7.53674)" fill="#FF7337"/>
<rect width="7.43541" height="31.6043" rx="3.71771" transform="matrix(-0.00899166 0.99996 -0.999968 -0.00805074 42 0.254395)" fill="#7300FF"/>
<rect width="15.3665" height="6.80689" rx="3.40344" transform="matrix(-0.00899166 0.99996 -0.999968 -0.00805074 16.4468 9.24219)" fill="#FF7337"/>
<rect width="23.5135" height="7.85788" rx="3.92894" transform="matrix(-0.00899166 0.99996 -0.999968 -0.00805074 30.1786 9.24219)" fill="#7300FF"/>
<path d="M38.1666 17.3877C38.2186 17.4008 38.2446 17.4399 38.2445 17.505C38.2444 17.5636 38.2574 17.6092 38.2834 17.6418C38.3485 17.6028 38.43 17.5639 38.5277 17.5249C38.6254 17.4795 38.7361 17.4666 38.8598 17.4863C38.8922 17.5645 38.9084 17.6394 38.9082 17.711C38.9081 17.7761 38.9015 17.8412 38.8884 17.9063C38.8753 17.9714 38.8589 18.0397 38.8393 18.1113C38.8196 18.1764 38.8032 18.248 38.7901 18.3261C38.7769 18.4563 38.7604 18.5572 38.7408 18.6287C38.7212 18.7003 38.6982 18.7849 38.672 18.8826C38.6393 18.9867 38.6131 19.0908 38.5934 19.1949C38.5803 19.2926 38.5638 19.387 38.5442 19.4781C38.5245 19.5692 38.4983 19.6538 38.4656 19.7319C38.433 19.8034 38.384 19.8685 38.3188 19.927C38.3249 20.1939 38.292 20.4641 38.2199 20.7374C38.1544 21.0107 38.0759 21.2548 37.9844 21.4695C37.9583 21.528 37.9354 21.5899 37.9157 21.6549C37.9026 21.72 37.8863 21.7753 37.8667 21.8209C37.8471 21.8599 37.821 21.8989 37.7883 21.938C37.7623 21.9705 37.7329 22.0062 37.7003 22.0453C37.6089 22.2144 37.511 22.3738 37.4066 22.5234C37.3087 22.6665 37.1686 22.7737 36.9861 22.845C36.934 22.8645 36.8852 22.8807 36.8396 22.8937C36.8005 22.9066 36.7582 22.9261 36.7125 22.9521C36.6539 22.9845 36.5757 23.03 36.478 23.0885C36.3867 23.1469 36.2988 23.1794 36.2141 23.1858C36.1686 23.1857 36.1165 23.1759 36.0579 23.1562C35.9994 23.1366 35.944 23.1268 35.892 23.1267C35.8334 23.1266 35.7683 23.1298 35.6966 23.1362C35.6315 23.1491 35.5664 23.1556 35.5013 23.1555C35.4427 23.1554 35.3874 23.1488 35.3353 23.1357C35.2832 23.1226 35.241 23.09 35.2085 23.0379C35.1304 23.0247 35.0588 23.0409 34.9936 23.0864C34.9284 23.1319 34.86 23.1546 34.7884 23.1545C34.7103 23.1478 34.642 23.1184 34.5835 23.0663C34.5315 23.0141 34.4697 22.9717 34.3981 22.9391C34.3525 22.965 34.3102 22.9748 34.2711 22.9682C34.232 22.9681 34.1897 22.9746 34.1441 22.9875C34.1051 22.9614 34.0661 22.9419 34.027 22.9288C33.988 22.9222 33.9489 22.9059 33.9099 22.8798C33.8384 22.8211 33.7832 22.7462 33.7443 22.655C33.7119 22.5572 33.6827 22.4563 33.6568 22.3521C33.631 22.2414 33.6018 22.1372 33.5694 22.0395C33.5436 21.9353 33.5014 21.8473 33.4429 21.7756C33.4626 21.6389 33.4921 21.512 33.5314 21.3949C33.5706 21.2778 33.6131 21.1639 33.6589 21.0533C33.6785 20.9752 33.6884 20.8905 33.6886 20.7994C33.6952 20.7018 33.6986 20.6074 33.6988 20.5162C33.7054 20.4186 33.7153 20.3242 33.7285 20.2331C33.7417 20.1354 33.7646 20.0476 33.7973 19.9695C33.8104 19.9369 33.8397 19.9044 33.8853 19.8719C33.931 19.8329 33.9636 19.7972 33.9832 19.7647C34.0028 19.7126 34.0191 19.654 34.0323 19.5889C34.0454 19.5173 34.0585 19.4555 34.0716 19.4035C34.0848 19.3188 34.0979 19.2147 34.1112 19.091C34.1244 18.9673 34.1343 18.8599 34.141 18.7688C34.1542 18.5995 34.174 18.4401 34.2003 18.2904C34.2331 18.1341 34.3081 18.0236 34.4254 17.9586C34.5231 17.9327 34.6111 17.897 34.6893 17.8516C34.774 17.8061 34.8847 17.7965 35.0213 17.8228C35.0539 17.8293 35.0929 17.8424 35.1385 17.862C35.1905 17.8751 35.2361 17.8882 35.2751 17.9012C35.3662 17.9274 35.4378 17.9503 35.4899 17.9699C35.5484 17.983 35.5842 18.0449 35.597 18.1556C35.6035 18.1881 35.6001 18.2435 35.587 18.3216C35.5738 18.3932 35.5575 18.455 35.5379 18.5071C35.5248 18.5396 35.5052 18.5689 35.4791 18.5949C35.453 18.6209 35.4335 18.6502 35.4204 18.6827C35.4073 18.7022 35.4008 18.725 35.4008 18.751C35.4072 18.7771 35.4039 18.7999 35.3909 18.8194C35.3778 18.8519 35.3517 18.9039 35.3125 18.9755C35.2733 19.0471 35.2472 19.0991 35.2341 19.1316C35.195 19.2032 35.1623 19.278 35.1361 19.3561C35.11 19.4342 35.0805 19.5188 35.0478 19.6099C35.0086 19.7205 34.9628 19.8442 34.9105 19.9808C34.8583 20.1174 34.8157 20.2541 34.783 20.3908C34.7567 20.5275 34.7435 20.6577 34.7433 20.7813C34.7431 20.8985 34.7331 21.019 34.7134 21.1426C34.7003 21.1947 34.684 21.2435 34.6644 21.2891C34.6448 21.3346 34.6414 21.3932 34.6543 21.4648C34.5826 21.5363 34.5597 21.6079 34.5856 21.6796C34.6116 21.7512 34.6505 21.8261 34.7025 21.9043C34.7415 21.9435 34.7837 21.9891 34.8292 22.0412C34.8747 22.0934 34.9267 22.1423 34.9852 22.1879C35.0437 22.2336 35.112 22.2695 35.1901 22.2956C35.2682 22.3153 35.3561 22.3187 35.4538 22.3058C35.5189 22.2929 35.5873 22.2669 35.659 22.2279C35.7307 22.189 35.7958 22.1533 35.8545 22.1208C35.9848 22.0689 36.0988 22.004 36.1966 21.926C36.2944 21.8415 36.3661 21.7341 36.4119 21.604C36.4381 21.5389 36.4512 21.4771 36.4513 21.4185C36.4579 21.3534 36.458 21.2916 36.4516 21.233C36.4517 21.1679 36.4518 21.1028 36.4519 21.0376C36.4585 20.966 36.4781 20.8912 36.5108 20.8131C36.5435 20.7416 36.5924 20.6765 36.6576 20.618C36.7228 20.5595 36.7652 20.4912 36.7849 20.4131C36.798 20.3741 36.798 20.3383 36.785 20.3057C36.7786 20.2666 36.7754 20.2276 36.7755 20.1885C36.7756 20.0973 36.7888 20.0062 36.815 19.9151C36.8411 19.824 36.8706 19.7329 36.9033 19.6418C36.9425 19.5442 36.9752 19.4498 37.0014 19.3587C37.0341 19.2676 37.0537 19.1765 37.0604 19.0854C37.067 19.0007 37.0737 18.9291 37.0803 18.8706C37.0869 18.812 37.0935 18.7599 37.1 18.7143C37.1131 18.6623 37.1262 18.6135 37.1393 18.5679C37.1524 18.5158 37.1753 18.4573 37.208 18.3922C37.2406 18.3337 37.27 18.2719 37.2961 18.2068C37.3223 18.1352 37.342 18.0474 37.3551 17.9432C37.3682 17.9107 37.3748 17.8716 37.3749 17.826C37.3749 17.774 37.3848 17.7284 37.4044 17.6894C37.4305 17.6308 37.4729 17.5853 37.5315 17.5528C37.5902 17.5138 37.6553 17.4846 37.727 17.4652C37.7986 17.4458 37.8735 17.4329 37.9517 17.4265C38.0298 17.4136 38.1014 17.4006 38.1666 17.3877ZM41.1118 19.9114C41.1964 19.9375 41.2811 19.9442 41.3657 19.9313C41.4504 19.9183 41.5415 19.9185 41.6392 19.9316C41.7433 19.9448 41.8377 19.971 41.9222 20.0102C42.0068 20.0428 42.111 20.0495 42.2347 20.0301C42.4105 20.0043 42.5896 19.9785 42.7719 19.9528C42.9543 19.9205 43.1268 19.9305 43.2895 19.9828C43.3024 20.0544 43.2893 20.1162 43.2501 20.1683C43.2175 20.2138 43.1751 20.243 43.123 20.256C43.1034 20.3406 43.0675 20.3991 43.0153 20.4316C42.9697 20.4576 42.9143 20.4738 42.8492 20.4802C42.7906 20.4866 42.7223 20.4898 42.6441 20.4897C42.5725 20.4831 42.5009 20.4927 42.4292 20.5187C42.3771 20.5381 42.325 20.5739 42.2728 20.6259C42.2207 20.6714 42.1555 20.7038 42.0774 20.7233C42.0448 20.7362 42.009 20.7427 41.9699 20.7426C41.9309 20.7361 41.8853 20.736 41.8332 20.7425C41.7876 20.7489 41.742 20.7586 41.6964 20.7716C41.6508 20.7845 41.6085 20.7975 41.5694 20.8104C41.5303 20.8169 41.4913 20.8168 41.4522 20.8103C41.4132 20.8037 41.3774 20.8069 41.3448 20.8199C41.2992 20.8329 41.2438 20.8523 41.1787 20.8783C41.12 20.9042 41.0549 20.9139 40.9833 20.9073C40.9116 20.9853 40.8496 21.0861 40.7973 21.2098C40.745 21.3334 40.6993 21.4635 40.66 21.6002C40.6207 21.7368 40.5847 21.8768 40.5519 22.02C40.5191 22.1631 40.4831 22.2966 40.4438 22.4202C40.4307 22.4723 40.4176 22.5308 40.4045 22.5959C40.3979 22.661 40.3881 22.7098 40.375 22.7424C40.3619 22.7619 40.3163 22.7846 40.2382 22.8105C40.1665 22.83 40.0851 22.8494 39.9939 22.8688C39.9028 22.8817 39.8149 22.8913 39.7302 22.8977C39.6521 22.9041 39.6033 22.8975 39.5838 22.878C39.5317 22.8454 39.4992 22.8486 39.4861 22.8876C39.4795 22.9332 39.4599 22.9592 39.4274 22.9656C39.3883 22.9786 39.3427 22.9818 39.2906 22.9752C39.2386 22.9686 39.1897 22.9751 39.1441 22.9945C39.1115 23.0075 39.0855 23.0303 39.0659 23.0628C39.0463 23.0953 39.0202 23.1213 38.9876 23.1408C38.9029 23.1863 38.8215 23.1992 38.7434 23.1795C38.6588 23.1599 38.6134 23.1012 38.607 23.0036C38.6006 22.945 38.617 22.8766 38.6561 22.7986C38.6953 22.714 38.741 22.6489 38.7932 22.6034C38.7868 22.5318 38.8031 22.47 38.8423 22.418C38.8814 22.3659 38.9076 22.3041 38.9207 22.2325C38.9273 22.2 38.9273 22.1642 38.9209 22.1251C38.9144 22.086 38.9145 22.047 38.9211 22.0079C38.9342 21.9363 38.9766 21.8615 39.0484 21.7835C39.1201 21.6989 39.1723 21.6111 39.205 21.52C39.2573 21.3769 39.2999 21.2044 39.3328 21.0026C39.3722 20.7943 39.4213 20.6121 39.4801 20.456C39.4997 20.4039 39.5258 20.3584 39.5585 20.3193C39.5976 20.2738 39.627 20.2283 39.6466 20.1827C39.6989 20.0396 39.7251 19.8997 39.7253 19.7629C39.7256 19.6262 39.7323 19.4797 39.7456 19.3235C39.7522 19.2649 39.7685 19.2129 39.7946 19.1673C39.8208 19.1153 39.8436 19.0567 39.8633 18.9916C39.9091 18.855 39.9353 18.7183 39.942 18.5816C39.9553 18.4384 39.9848 18.3082 40.0305 18.1911C40.0241 18.126 40.0047 18.0706 39.9722 18.025C39.9397 17.9794 39.904 17.9403 39.865 17.9077C39.8325 17.8686 39.7967 17.8294 39.7577 17.7903C39.7253 17.7447 39.7058 17.6893 39.6994 17.6242C39.745 17.5982 39.7906 17.5853 39.8362 17.5854C39.8818 17.5789 39.9273 17.5822 39.9729 17.5953C40.0184 17.6019 40.064 17.6117 40.1096 17.6248C40.1551 17.6314 40.2007 17.6314 40.2463 17.625C40.2854 17.612 40.331 17.5958 40.3831 17.5764C40.4417 17.5569 40.5101 17.5537 40.5882 17.5669C40.6337 17.58 40.676 17.5996 40.715 17.6256C40.7541 17.6452 40.8094 17.6583 40.881 17.6649C40.9461 17.6781 41.0144 17.6847 41.086 17.6848C41.1576 17.6784 41.2227 17.6915 41.2813 17.7241C41.3268 17.7372 41.3789 17.7535 41.4374 17.7731C41.5025 17.7863 41.5513 17.7961 41.5839 17.8026C41.7141 17.8224 41.8573 17.8258 42.0136 17.813C42.1698 17.7937 42.3326 17.7907 42.5019 17.8039C42.58 17.8106 42.6548 17.8237 42.7264 17.8433C42.798 17.8629 42.8728 17.8793 42.9509 17.8925C43.0616 17.9056 43.1885 17.9091 43.3318 17.9028C43.4815 17.8965 43.6215 17.8869 43.7517 17.874C43.8364 17.8677 43.908 17.8612 43.9666 17.8548C44.0252 17.8419 44.0806 17.8322 44.1327 17.8258C44.1848 17.8128 44.2369 17.8064 44.289 17.8064C44.3476 17.8 44.4159 17.8001 44.494 17.8067C44.5331 17.8133 44.5754 17.8199 44.621 17.8264C44.673 17.8265 44.699 17.8526 44.699 17.9047C44.7054 17.9763 44.6792 18.0251 44.6206 18.051C44.562 18.077 44.5001 18.1062 44.4349 18.1387C44.3437 18.1841 44.2622 18.2361 44.1905 18.2946C44.1254 18.3466 44.0537 18.3888 43.9755 18.4212C43.8843 18.4602 43.7964 18.4861 43.7117 18.499C43.6271 18.5054 43.5261 18.5248 43.4089 18.5572C43.2656 18.5895 43.1256 18.6186 42.9888 18.6445C42.8521 18.6638 42.7056 18.6669 42.5494 18.6536C42.4647 18.6405 42.3736 18.6273 42.276 18.6142C42.1784 18.5945 42.0905 18.5976 42.0123 18.6236C41.9537 18.6365 41.9015 18.682 41.8558 18.7601C41.8167 18.8316 41.7612 18.8901 41.6895 18.9356C41.657 18.9551 41.6244 18.9681 41.5918 18.9745C41.5593 18.981 41.5299 18.9907 41.5039 19.0037C41.4452 19.0427 41.3963 19.098 41.3571 19.1695C41.3245 19.2411 41.2951 19.3192 41.2689 19.4038C41.2427 19.4819 41.2165 19.5665 41.1904 19.6576C41.1642 19.7487 41.138 19.8333 41.1118 19.9114ZM45.9384 18.4337C46.0622 18.3493 46.1698 18.2518 46.2611 18.1412C46.3524 18.0307 46.4405 17.9201 46.5253 17.8096C46.5774 17.8162 46.623 17.8065 46.6621 17.7805C46.7012 17.7545 46.7435 17.735 46.7891 17.7221C46.8803 17.6961 46.9714 17.6995 47.0625 17.7322C47.1601 17.7584 47.2545 17.7683 47.3457 17.7619C47.4564 17.749 47.5606 17.7199 47.6583 17.6744C47.7626 17.629 47.883 17.6064 48.0197 17.6066C48.0653 17.6067 48.1076 17.623 48.1466 17.6556C48.1856 17.6817 48.2247 17.698 48.2637 17.7046C48.3158 17.7177 48.3614 17.7112 48.4005 17.6852C48.4461 17.6593 48.4949 17.6463 48.547 17.6464C48.6382 17.6465 48.7065 17.6759 48.752 17.7346C48.804 17.7932 48.8625 17.8519 48.9275 17.9106C48.9598 18.0604 48.9628 18.2069 48.9366 18.3501C48.9103 18.4933 48.9036 18.6397 48.9163 18.7895C48.9292 18.8872 48.9421 18.9816 48.955 19.0727C48.9743 19.1639 48.984 19.2583 48.9838 19.356C48.9902 19.4406 48.9835 19.5318 48.9639 19.6294C48.9507 19.7205 48.9473 19.8117 48.9537 19.9028C48.9601 19.9354 48.9698 19.9679 48.9828 20.0005C48.9958 20.0331 48.999 20.0656 48.9924 20.0982C48.9793 20.1698 48.9499 20.2251 48.9043 20.2641C48.8586 20.3031 48.8325 20.3551 48.8259 20.4202C48.8127 20.5179 48.8321 20.609 48.8841 20.6937C48.9425 20.7785 48.9782 20.8664 48.9911 20.9576C48.9975 20.9966 48.9942 21.0389 48.9811 21.0845C48.968 21.1301 48.9614 21.1724 48.9614 21.2114C48.9481 21.3546 48.9479 21.5141 48.9606 21.6899C48.9799 21.8657 48.9926 22.0285 48.9989 22.1783C48.9988 22.2304 49.002 22.2824 49.0084 22.3345C49.0214 22.3866 49.0213 22.429 49.0082 22.4615C49.0017 22.494 48.9854 22.5201 48.9593 22.5395C48.9397 22.5591 48.9234 22.5818 48.9104 22.6078C48.9038 22.6404 48.9037 22.686 48.9101 22.7446C48.9231 22.8032 48.9295 22.8585 48.9294 22.9106C48.9293 22.9562 48.926 22.9985 48.9195 23.0375C48.9129 23.0831 48.9096 23.1222 48.9095 23.1547C48.916 23.1743 48.9225 23.1938 48.9289 23.2133C48.9419 23.2394 48.9451 23.2622 48.9386 23.2817C48.9255 23.3403 48.8798 23.4021 48.8016 23.4671C48.7299 23.5386 48.6549 23.571 48.5768 23.5644C48.5378 23.5578 48.4792 23.5252 48.4012 23.4665C48.3297 23.4143 48.2777 23.3719 48.2452 23.3393C48.1867 23.2676 48.151 23.1764 48.1382 23.0657C48.1253 22.955 48.0962 22.8541 48.0507 22.7629C48.0313 22.7303 48.002 22.701 47.963 22.6749C47.9305 22.6423 47.9012 22.6064 47.8753 22.5673C47.8363 22.4957 47.8104 22.424 47.7975 22.3524C47.7846 22.2742 47.7749 22.1993 47.7685 22.1277C47.7687 22.0496 47.7655 21.9747 47.7591 21.9031C47.7527 21.825 47.7366 21.7468 47.7107 21.6687C47.6977 21.6426 47.6782 21.6198 47.6522 21.6002C47.6262 21.5806 47.6034 21.5546 47.5839 21.522C47.545 21.4568 47.519 21.4015 47.5061 21.3559C47.4931 21.3103 47.4509 21.2744 47.3793 21.2483C47.1514 21.248 46.9203 21.2411 46.686 21.2278C46.4581 21.2144 46.2335 21.2206 46.0121 21.2464C45.96 21.2528 45.9144 21.2658 45.8753 21.2852C45.8362 21.2982 45.7906 21.3079 45.7386 21.3143C45.7125 21.3143 45.6865 21.311 45.6604 21.3045C45.6344 21.2979 45.6116 21.2946 45.5921 21.2946C45.5009 21.3075 45.413 21.3497 45.3282 21.4212C45.2435 21.4862 45.1783 21.5512 45.1326 21.6162C45.1065 21.6552 45.0902 21.704 45.0836 21.7626C45.0835 21.8147 45.0736 21.8668 45.054 21.9188C45.0344 21.9709 45.0018 22.0197 44.9561 22.0652C44.9105 22.1042 44.8941 22.1562 44.9071 22.2214C44.8354 22.2734 44.7734 22.3384 44.7212 22.4164C44.6755 22.4945 44.6298 22.5758 44.5841 22.6604C44.5384 22.7384 44.4862 22.8132 44.4275 22.8848C44.3753 22.9563 44.3101 23.0083 44.2319 23.0407C44.1994 23.0537 44.1668 23.0699 44.1342 23.0894C44.1081 23.1089 44.0788 23.1186 44.0463 23.1186C44.0137 23.112 43.9942 23.1023 43.9877 23.0892C43.9877 23.0762 43.9682 23.0566 43.9292 23.0305C43.8902 23.0045 43.8447 22.9751 43.7926 22.9425C43.7341 22.9098 43.6788 22.8739 43.6268 22.8348C43.5748 22.7957 43.5293 22.7566 43.4903 22.7174C43.4448 22.6718 43.4123 22.6294 43.3928 22.5903C43.3409 22.4796 43.3313 22.4015 43.3639 22.3559C43.3965 22.3039 43.4389 22.2421 43.4911 22.1706C43.5629 22.0665 43.6445 21.9494 43.7358 21.8193C43.8272 21.6893 43.9087 21.5657 43.9805 21.4486C44.0197 21.3835 44.0523 21.3217 44.0785 21.2632C44.1111 21.2046 44.1503 21.1493 44.1959 21.0973C44.2481 21.0258 44.3133 20.9673 44.3915 20.9218C44.4762 20.8764 44.5349 20.8179 44.5676 20.7463C44.5806 20.7138 44.5872 20.6812 44.5873 20.6487C44.5873 20.6096 44.5939 20.5705 44.607 20.5315C44.6593 20.4014 44.7408 20.2843 44.8517 20.1803C44.9625 20.0763 45.0473 19.9592 45.1061 19.8291C45.1192 19.7965 45.1257 19.7672 45.1258 19.7412C45.1323 19.7087 45.1422 19.6761 45.1552 19.6436C45.2598 19.4029 45.3871 19.1882 45.5371 18.9996C45.6936 18.811 45.8274 18.6224 45.9384 18.4337ZM47.3056 18.4064C47.2274 18.4649 47.1589 18.5331 47.1002 18.6112C47.048 18.6827 46.9763 18.7379 46.8851 18.7769C46.859 18.8354 46.8263 18.8907 46.7872 18.9428C46.7546 18.9948 46.7089 19.037 46.6503 19.0695C46.6306 19.1737 46.5914 19.2647 46.5327 19.3428C46.474 19.4143 46.4185 19.4859 46.3663 19.5574C46.3402 19.5834 46.3174 19.6127 46.2978 19.6452C46.2782 19.6712 46.2554 19.7005 46.2293 19.733C46.1967 19.7655 46.1641 19.7915 46.1315 19.811C46.099 19.824 46.0696 19.8434 46.0436 19.8694C46.0044 19.9215 45.962 19.993 45.9163 20.0841C45.8705 20.1752 45.8281 20.25 45.789 20.3085C45.7564 20.341 45.7238 20.3736 45.6911 20.4061C45.6585 20.4386 45.6487 20.4809 45.6617 20.533C45.6811 20.5851 45.7201 20.6209 45.7787 20.6406C45.8372 20.6537 45.9023 20.6635 45.9739 20.6701C46.0521 20.6702 46.1269 20.6671 46.1986 20.6607C46.2702 20.6543 46.3288 20.6511 46.3744 20.6512C46.4655 20.6513 46.5566 20.6547 46.6478 20.6613C46.7454 20.6614 46.8366 20.6583 46.9212 20.6519C47.0124 20.6455 47.0905 20.6294 47.1557 20.6034C47.2273 20.5775 47.2827 20.5385 47.3219 20.4865C47.3873 20.2782 47.4039 20.0699 47.3717 19.8615C47.3395 19.6467 47.3105 19.435 47.2848 19.2267C47.2719 19.168 47.2622 19.1029 47.2558 19.0313C47.2494 18.9597 47.2495 18.8946 47.2561 18.836C47.2627 18.7709 47.2823 18.7091 47.315 18.6505C47.3542 18.5855 47.3608 18.5106 47.3349 18.4259L47.3056 18.4064ZM50.1407 22.717C50.0039 22.7624 49.8835 22.7459 49.7794 22.6677C49.6754 22.5829 49.6104 22.4851 49.5846 22.3744C49.5716 22.3223 49.5717 22.2442 49.5849 22.14C49.5981 22.0294 49.6178 21.9415 49.6439 21.8764C49.6701 21.8049 49.7256 21.7203 49.8103 21.6228C49.8951 21.5252 49.9604 21.4146 50.0062 21.291C50.0519 21.1739 50.0879 21.0633 50.1141 20.9591C50.1468 20.8485 50.1926 20.7607 50.2512 20.6957C50.2969 20.6501 50.3458 20.6112 50.3979 20.5787C50.4501 20.5397 50.4794 20.4909 50.486 20.4323C50.4861 20.3802 50.4699 20.3346 50.4374 20.2955C50.4114 20.2564 50.4018 20.2043 50.4084 20.1392C50.4085 20.0806 50.4249 20.0058 50.4575 19.9147C50.4968 19.8236 50.5327 19.7423 50.5654 19.6707C50.6372 19.5146 50.6928 19.3551 50.7321 19.1924C50.7452 19.1469 50.7551 19.0948 50.7617 19.0362C50.7748 18.9711 50.7879 18.9223 50.8009 18.8898C50.8205 18.8638 50.8401 18.8215 50.8597 18.7629C50.8859 18.7044 50.9153 18.6458 50.9479 18.5873C50.9806 18.5287 51.0164 18.4767 51.0556 18.4312C51.0947 18.3791 51.1371 18.3434 51.1827 18.3239C51.2348 18.3045 51.2902 18.2915 51.3488 18.2851C51.4139 18.2722 51.4725 18.2527 51.5246 18.2267C51.5833 18.2073 51.6191 18.1845 51.6322 18.1585C51.6452 18.1325 51.6778 18.1065 51.73 18.0805C51.769 18.0676 51.8081 18.0611 51.8472 18.0612C51.8927 18.0612 51.9383 18.0548 51.9839 18.0418C52.036 18.0224 52.0914 17.9932 52.1501 17.9542C52.2087 17.9152 52.2771 17.9185 52.3551 17.9642C52.3877 17.9838 52.4201 18.0424 52.4525 18.1401C52.4849 18.2378 52.5173 18.329 52.5497 18.4137C52.5627 18.4593 52.5789 18.5147 52.5983 18.5798C52.6243 18.6449 52.6469 18.7133 52.6663 18.785C52.6858 18.8501 52.7052 18.912 52.7247 18.9706C52.7441 19.0227 52.7603 19.0618 52.7733 19.0879C52.8057 19.153 52.8284 19.2214 52.8413 19.293C52.8542 19.3647 52.8737 19.4298 52.8996 19.4884C52.9321 19.5536 52.9645 19.6155 52.997 19.6741C53.0294 19.7327 53.0619 19.7979 53.0943 19.8696C53.1268 19.9412 53.156 20.0096 53.1819 20.0748C53.2078 20.1399 53.2403 20.2083 53.2792 20.28C53.3052 20.3321 53.3442 20.381 53.3962 20.4266C53.4482 20.4658 53.4807 20.5114 53.4936 20.5635C53.5131 20.6156 53.513 20.6742 53.4934 20.7393C53.4737 20.7978 53.4704 20.8532 53.4833 20.9053C53.5028 20.9769 53.545 21.0356 53.61 21.0812C53.6751 21.1269 53.7336 21.1758 53.7856 21.228C53.8181 21.2671 53.8375 21.3061 53.844 21.3452C53.8504 21.3843 53.8797 21.4104 53.9318 21.4235C53.945 21.2998 53.9582 21.1924 53.9713 21.1013C53.991 21.0101 54.0107 20.9223 54.0303 20.8377C54.05 20.7465 54.0697 20.6554 54.0893 20.5643C54.109 20.4667 54.1255 20.3593 54.1387 20.2421C54.2039 20.1576 54.2626 20.0795 54.3148 20.008C54.367 19.9299 54.39 19.8291 54.3837 19.7053C54.3772 19.6663 54.3643 19.6272 54.3448 19.5881C54.3318 19.549 54.3286 19.5067 54.3352 19.4611C54.3418 19.396 54.3549 19.3375 54.3746 19.2854C54.3942 19.2334 54.4203 19.1683 54.453 19.0902C54.4726 19.0382 54.489 18.9861 54.5021 18.934C54.5152 18.8755 54.5315 18.8136 54.5512 18.7486C54.5708 18.6965 54.5871 18.6542 54.6002 18.6217C54.6198 18.5891 54.6394 18.5599 54.6589 18.5339C54.6785 18.5013 54.6948 18.4688 54.7079 18.4363C54.721 18.3972 54.7341 18.3419 54.7472 18.2703C54.7669 18.1597 54.7769 18.0653 54.777 17.9871C54.7771 17.909 54.7935 17.8309 54.8262 17.7528C54.8784 17.6357 54.96 17.5382 55.0708 17.4602C55.1881 17.3757 55.2989 17.3075 55.4031 17.2556C55.5854 17.2624 55.7351 17.3114 55.8521 17.4027C55.9692 17.4875 56.0439 17.5918 56.0762 17.7155C56.1216 17.8328 56.1182 17.9304 56.066 18.0085C56.0138 18.08 55.9616 18.1613 55.9094 18.2524C55.8767 18.311 55.8506 18.3663 55.831 18.4183C55.8179 18.4704 55.8048 18.5224 55.7917 18.5745C55.7851 18.6201 55.7753 18.6689 55.7622 18.721C55.7556 18.773 55.7392 18.8316 55.7131 18.8967C55.6934 18.9617 55.664 19.017 55.6249 19.0626C55.5858 19.1016 55.5597 19.1438 55.5466 19.1894C55.566 19.2806 55.5724 19.3555 55.5658 19.414C55.5657 19.4726 55.5558 19.528 55.5362 19.58C55.5231 19.6256 55.5068 19.6744 55.4871 19.7264C55.4741 19.772 55.461 19.824 55.4478 19.8826C55.4347 19.9282 55.4282 19.9737 55.4281 20.0193C55.428 20.0649 55.4214 20.1072 55.4084 20.1462C55.3887 20.2243 55.3626 20.2959 55.3299 20.361C55.2972 20.426 55.2646 20.4878 55.232 20.5464C55.1862 20.644 55.134 20.735 55.0753 20.8196C55.0231 20.9042 54.9903 21.018 54.9771 21.1613C54.9704 21.2524 54.9638 21.3338 54.9572 21.4054C54.9571 21.4705 54.9537 21.5323 54.9471 21.5909C54.947 21.6495 54.9372 21.7113 54.9175 21.7764C54.9044 21.8415 54.8848 21.9196 54.8586 22.0107C54.8455 22.0628 54.8259 22.1148 54.7997 22.1669C54.7801 22.2124 54.7638 22.2612 54.7507 22.3133C54.7113 22.4825 54.6558 22.6126 54.584 22.7037C54.5123 22.7882 54.4047 22.876 54.2614 22.9669C54.1832 22.9863 54.1051 23.0057 54.0269 23.0252C53.9487 23.0446 53.8706 23.0542 53.7925 23.0541C53.7209 23.054 53.6525 23.0409 53.5875 23.0148C53.5224 22.9952 53.4671 22.9495 53.4217 22.8778C53.3892 22.8257 53.3535 22.7508 53.3146 22.6531C53.2822 22.5489 53.2433 22.4479 53.1979 22.3502C53.1784 22.3046 53.1557 22.2622 53.1297 22.2231C53.1103 22.1775 53.0941 22.1319 53.0811 22.0863C53.0487 22.0147 53.026 21.9528 53.013 21.9007C53.0066 21.8486 52.9872 21.777 52.9548 21.6858C52.9094 21.5425 52.838 21.435 52.7404 21.3632C52.6429 21.2915 52.5584 21.2132 52.4869 21.1285C52.4805 21.0634 52.4708 21.0048 52.4579 20.9527C52.4449 20.9006 52.4157 20.8582 52.3702 20.8256C52.3572 20.8125 52.3409 20.806 52.3214 20.806C52.3019 20.7994 52.2856 20.7864 52.2726 20.7668C52.2531 20.7408 52.2402 20.7115 52.2337 20.6789C52.2272 20.6398 52.2143 20.6105 52.1948 20.591C52.1818 20.5779 52.1623 20.5486 52.1363 20.503C52.1103 20.4574 52.0844 20.4118 52.0584 20.3662C52.0389 20.3206 52.0162 20.2815 51.9902 20.2489C51.9642 20.2098 51.9447 20.1935 51.9317 20.2C51.8992 20.1999 51.8666 20.2259 51.8339 20.2779C51.8078 20.33 51.7784 20.3885 51.7458 20.4536C51.7196 20.5187 51.6935 20.5837 51.6673 20.6488C51.6412 20.7074 51.6184 20.7497 51.5988 20.7757C51.5662 20.8212 51.54 20.8895 51.5203 20.9806C51.5072 21.0653 51.4875 21.1336 51.4614 21.1856C51.4157 21.2637 51.3733 21.3418 51.3341 21.4198C51.3014 21.4979 51.3111 21.5826 51.363 21.6738C51.3629 21.7193 51.3498 21.7584 51.3238 21.7909C51.3042 21.8169 51.3009 21.8625 51.3138 21.9276C51.2746 21.9992 51.2354 22.0805 51.1962 22.1716C51.1635 22.2627 51.1275 22.3636 51.0883 22.4742C51.0687 22.5392 51.0523 22.6076 51.0392 22.6792C51.026 22.7443 51.0097 22.8093 50.99 22.8744C50.9704 22.933 50.941 22.985 50.9019 23.0306C50.8693 23.0761 50.8237 23.1021 50.7651 23.1085C50.6869 23.1214 50.6218 23.1115 50.5698 23.0789C50.5178 23.0463 50.469 23.0072 50.4235 22.9615C50.378 22.9224 50.3325 22.88 50.287 22.8344C50.2415 22.7822 50.1927 22.7431 50.1407 22.717ZM32.7101 31.3703C32.7234 31.2206 32.7724 31.0872 32.8572 30.9701C32.9486 30.8466 33.0171 30.7197 33.0629 30.5896C33.0891 30.505 33.1055 30.4171 33.1121 30.3259C33.1253 30.2283 33.132 30.1339 33.1321 30.0428C33.1388 29.9451 33.1487 29.8507 33.1618 29.7596C33.175 29.662 33.198 29.5676 33.2306 29.4765C33.1982 29.4179 33.1853 29.3527 33.1919 29.2811C33.1985 29.2095 33.2019 29.1347 33.202 29.0565C33.2346 29.011 33.2608 28.959 33.2804 28.9004C33.3 28.8418 33.3456 28.8028 33.4173 28.7834C33.4826 28.6403 33.5154 28.4938 33.5156 28.3441C33.5159 28.1878 33.5324 28.0284 33.5652 27.8656C33.5718 27.8331 33.5848 27.8038 33.6044 27.7778C33.624 27.7518 33.6403 27.7225 33.6534 27.69C33.6992 27.5533 33.7222 27.4101 33.7224 27.2604C33.7226 27.1041 33.7489 26.9577 33.8012 26.8211C33.8403 26.8081 33.8892 26.7886 33.9478 26.7627C34.0064 26.7302 34.0651 26.701 34.1237 26.675C34.1889 26.6426 34.2508 26.6166 34.3094 26.5972C34.368 26.5777 34.4201 26.5713 34.4657 26.5778C34.4982 26.5909 34.5307 26.6105 34.5632 26.6366C34.5957 26.6561 34.6348 26.6822 34.6803 26.7149C34.7128 26.7344 34.7421 26.7573 34.7681 26.7833C34.8006 26.8094 34.8331 26.8323 34.8656 26.8518C34.8916 26.8649 34.9242 26.878 34.9632 26.891C35.0088 26.8976 35.0381 26.9074 35.0511 26.9205C35.0576 26.927 35.0771 26.9498 35.1095 26.9889C35.1485 27.028 35.1843 27.0704 35.2168 27.116C35.2558 27.1616 35.2915 27.2073 35.324 27.2529C35.3565 27.292 35.376 27.318 35.3824 27.3311C35.3889 27.3702 35.3856 27.4157 35.3725 27.4678C35.3594 27.5133 35.3398 27.5621 35.3136 27.6142C35.294 27.6597 35.2712 27.7085 35.2451 27.7606C35.2255 27.8061 35.2091 27.8484 35.196 27.8875C35.1764 27.959 35.1567 28.0306 35.1371 28.1022C35.1175 28.1673 35.0913 28.2356 35.0587 28.3072C35.026 28.3918 34.99 28.4894 34.9508 28.6C34.9115 28.7106 34.8853 28.8278 34.8721 28.9515C34.8589 29.0426 34.823 29.1109 34.7644 29.1564C34.7122 29.2019 34.6763 29.2669 34.6566 29.3515C34.6435 29.4101 34.6369 29.472 34.6368 29.5371C34.6367 29.6022 34.6366 29.6673 34.6365 29.7324C34.6429 29.791 34.6428 29.8496 34.6362 29.9082C34.6361 29.9668 34.623 30.0221 34.5969 30.0741C34.5773 30.1066 34.548 30.1326 34.5089 30.1521C34.4698 30.1651 34.4372 30.1878 34.4111 30.2203C34.372 30.2854 34.336 30.3667 34.3033 30.4643C34.2771 30.562 34.2542 30.6661 34.2345 30.7767C34.2148 30.8809 34.2048 30.9883 34.2047 31.099C34.211 31.2031 34.2304 31.2976 34.2628 31.3822C34.2301 31.4864 34.1714 31.5774 34.0866 31.6554C34.0084 31.7335 33.9139 31.7952 33.8031 31.8406C33.6924 31.8795 33.5719 31.8989 33.4417 31.8987C33.318 31.905 33.1911 31.8853 33.0609 31.8395C33.009 31.7614 32.9472 31.6897 32.8757 31.6244C32.8042 31.5527 32.749 31.468 32.7101 31.3703ZM40.9107 26.7627C40.9236 26.8343 40.9072 26.8961 40.8616 26.9481C40.8224 26.9936 40.7703 27.0229 40.7052 27.0358C40.7181 27.0814 40.7409 27.1107 40.7734 27.1238C40.8059 27.1303 40.8287 27.1499 40.8417 27.1825C40.7894 27.2866 40.7014 27.3646 40.5776 27.4165C40.4604 27.4619 40.3366 27.5008 40.2064 27.5331C40.1282 27.5461 40.0436 27.5525 39.9524 27.5523C39.8678 27.5522 39.7864 27.5456 39.7083 27.5325C39.5977 27.5128 39.4936 27.4768 39.396 27.4246C39.2984 27.3659 39.204 27.3429 39.1129 27.3558C39.0868 27.3623 39.0575 27.3785 39.0249 27.4045C38.9988 27.4305 38.9695 27.45 38.9369 27.463C38.8718 27.5085 38.7903 27.5474 38.6926 27.5799C38.6014 27.6058 38.5298 27.635 38.4776 27.6674C38.3278 27.7519 38.1876 27.8558 38.0572 27.9794C37.9268 28.1029 37.7899 28.2101 37.6466 28.301C37.5943 28.4051 37.5421 28.5092 37.4898 28.6133C37.4441 28.7109 37.3951 28.8248 37.3428 28.9549C37.3167 29.0135 37.2873 29.0753 37.2546 29.1403C37.2285 29.1989 37.2089 29.2575 37.1957 29.316C37.1826 29.3746 37.1695 29.4462 37.1564 29.5308C37.1497 29.6155 37.1366 29.6936 37.1169 29.7652C37.1038 29.8172 37.081 29.8628 37.0483 29.9018C37.0222 29.9408 37.0124 29.9896 37.0188 30.0482C37.0318 30.1003 37.0577 30.1427 37.0967 30.1753C37.1423 30.2079 37.1715 30.247 37.1845 30.2926C37.1974 30.3187 37.1974 30.3479 37.1843 30.3805C37.1778 30.4065 37.1777 30.4358 37.1842 30.4684C37.21 30.5791 37.2652 30.6801 37.3497 30.7713C37.4407 30.8626 37.5155 30.9506 37.5739 31.0353C37.7106 31.0485 37.831 31.0715 37.9351 31.1042C38.0458 31.1304 38.1597 31.1533 38.2768 31.173C38.3876 31.1211 38.4983 31.0789 38.6091 31.0465C38.7263 31.0142 38.8501 30.9753 38.9803 30.9299C39.078 30.8975 39.1725 30.8488 39.2638 30.7838C39.3615 30.7123 39.4625 30.6701 39.5667 30.6573C39.5862 30.6573 39.609 30.6638 39.635 30.6769C39.6611 30.6834 39.6838 30.6835 39.7034 30.677C39.7555 30.6705 39.8011 30.6511 39.8402 30.6186C39.8793 30.5861 39.9184 30.5568 39.9575 30.5309C40.0031 30.4984 40.0488 30.4724 40.0944 30.4529C40.1465 30.4335 40.2051 30.4303 40.2702 30.4434C40.3351 30.5542 40.3447 30.6421 40.299 30.7071C40.2599 30.7722 40.2012 30.8339 40.123 30.8924C40.0448 30.9444 39.9666 31.0029 39.8883 31.0679C39.8166 31.1329 39.7807 31.2175 39.7805 31.3216C39.7218 31.3866 39.6501 31.4549 39.5653 31.5264C39.4806 31.5979 39.3828 31.6563 39.2721 31.7018C39.2265 31.7147 39.1777 31.7277 39.1256 31.7406C39.08 31.7471 39.0376 31.7568 38.9986 31.7697C38.8618 31.8216 38.7347 31.8768 38.6174 31.9352C38.5002 31.9937 38.3536 32.0195 38.1779 32.0127C38.0737 32.0126 37.9793 32.0027 37.8947 31.983C37.8231 31.9699 37.7548 31.947 37.6897 31.9144C37.6312 31.8818 37.5661 31.8589 37.4945 31.8458C37.4034 31.8326 37.3123 31.8325 37.2211 31.8454C37.1299 31.8583 37.0453 31.8582 36.9672 31.845C36.8891 31.8319 36.8077 31.8025 36.7232 31.7568C36.6386 31.7046 36.5573 31.6524 36.4793 31.6002C36.3947 31.5545 36.3134 31.5121 36.2353 31.4729C36.1638 31.4272 36.0923 31.3848 36.0207 31.3456C35.9362 31.2869 35.8647 31.2152 35.8062 31.1305C35.7542 31.0393 35.6893 30.9578 35.6113 30.8861C35.5789 30.7558 35.5661 30.6289 35.5728 30.5052C35.5795 30.375 35.5797 30.2448 35.5734 30.1146C35.5671 29.9974 35.5445 29.8769 35.5056 29.7531C35.4733 29.6294 35.4637 29.5187 35.4768 29.4211C35.4899 29.3755 35.5063 29.3267 35.5259 29.2746C35.5455 29.2226 35.5586 29.1673 35.5652 29.1087C35.5784 29.0176 35.5915 28.9362 35.6047 28.8646C35.6243 28.7865 35.6537 28.7117 35.6929 28.6401C35.719 28.5946 35.7484 28.5523 35.781 28.5133C35.8201 28.4743 35.856 28.4353 35.8886 28.3962C35.9277 28.3572 35.9603 28.315 35.9864 28.2694C36.0126 28.2239 36.0289 28.1653 36.0356 28.0937C36.0747 28.0417 36.1203 28.0027 36.1725 27.9767C36.2311 27.9508 36.2767 27.9118 36.3094 27.8597C36.3289 27.8272 36.3388 27.7947 36.3388 27.7621C36.3389 27.7296 36.3519 27.697 36.378 27.6645C36.4106 27.6255 36.4595 27.5832 36.5247 27.5378C36.5899 27.4923 36.6453 27.4533 36.6909 27.4208C36.8212 27.3494 36.958 27.2845 37.1014 27.2261C37.2447 27.1612 37.3783 27.0832 37.5021 26.9923C37.5802 26.9924 37.6551 26.9827 37.7268 26.9633C37.8049 26.9373 37.8766 26.9114 37.9417 26.8854C38.0134 26.853 38.0851 26.8238 38.1567 26.7979C38.2284 26.7654 38.3033 26.7427 38.3814 26.7298C38.4531 26.7234 38.5312 26.7235 38.6158 26.7301C38.7004 26.7303 38.7818 26.7271 38.86 26.7207C38.9772 26.7144 39.0944 26.7113 39.2115 26.7114C39.3353 26.7051 39.4459 26.7085 39.5436 26.7217C39.5891 26.7282 39.6347 26.7446 39.6802 26.7707C39.7257 26.7903 39.7746 26.8001 39.8266 26.8002C39.8722 26.8003 39.9178 26.7906 39.9634 26.7711C40.0155 26.7516 40.0644 26.7387 40.11 26.7322C40.2402 26.7194 40.3736 26.7196 40.5103 26.7328C40.6471 26.7395 40.7805 26.7494 40.9107 26.7627ZM47.044 26.449C47.0763 26.5988 47.0924 26.7323 47.0922 26.8494C47.092 26.9666 47.0463 27.0642 46.955 27.1422C46.9289 27.1682 46.8996 27.1877 46.867 27.2007C46.8345 27.2071 46.8052 27.2234 46.7791 27.2494C46.7334 27.2949 46.6975 27.3469 46.6714 27.4055C46.6518 27.4641 46.6257 27.5194 46.593 27.5714C46.4041 27.6623 46.2281 27.7727 46.0652 27.9027C45.9022 28.0262 45.7295 28.1398 45.547 28.2438C45.4623 28.2892 45.3776 28.3444 45.2929 28.4094C45.2147 28.4744 45.1364 28.5329 45.0582 28.5849C45.0256 28.6174 44.993 28.6499 44.9604 28.6824C44.9343 28.7149 44.9017 28.7442 44.8626 28.7701C44.817 28.8026 44.7681 28.8253 44.716 28.8383C44.6639 28.8447 44.6151 28.8577 44.5695 28.8772C44.4978 28.9226 44.4391 28.9746 44.3935 29.0332C44.3478 29.0917 44.2924 29.1567 44.2271 29.2282C44.2269 29.3975 44.2462 29.544 44.2851 29.6678C44.3304 29.785 44.3823 29.899 44.4408 30.0098C44.4992 30.114 44.5544 30.2215 44.6063 30.3323C44.6647 30.443 44.7101 30.5668 44.7424 30.7036C44.84 30.7493 44.905 30.821 44.9374 30.9187C44.9763 31.0164 45.0315 31.1011 45.103 31.1728C45.1225 31.1989 45.1485 31.2185 45.181 31.2315C45.2136 31.2381 45.2429 31.2544 45.2689 31.2805C45.3014 31.3066 45.3274 31.3392 45.3468 31.3782C45.3663 31.4173 45.3923 31.4532 45.4248 31.4858C45.4833 31.5379 45.5418 31.5836 45.6004 31.6227C45.6654 31.6554 45.7239 31.6978 45.7759 31.7499C45.8279 31.8021 45.8799 31.8575 45.9319 31.9162C45.9839 31.9748 46.0555 32.0173 46.1466 32.0434C46.205 32.1542 46.2699 32.2552 46.3414 32.3464C46.4129 32.4377 46.5137 32.5029 46.6438 32.5422C46.6568 32.5943 46.686 32.6366 46.7315 32.6693C46.777 32.7084 46.7965 32.7475 46.7899 32.7865C46.7703 32.8581 46.7116 32.8971 46.614 32.9035C46.5163 32.9163 46.4024 32.9162 46.2722 32.903C46.1485 32.8898 46.0248 32.8701 45.9012 32.8439C45.784 32.8177 45.6962 32.8013 45.6376 32.7947C45.6246 32.7816 45.6083 32.7686 45.5888 32.7555C45.5758 32.749 45.5628 32.7392 45.5498 32.7262C45.4001 32.713 45.2732 32.6802 45.1691 32.628C45.065 32.5758 44.9642 32.5203 44.8666 32.4616C44.8212 32.3769 44.7725 32.2954 44.7205 32.2172C44.6686 32.139 44.6068 32.0673 44.5353 32.0021C44.5354 31.95 44.5257 31.9044 44.5062 31.8654C44.4933 31.8263 44.4868 31.7742 44.4869 31.7091C44.4349 31.6699 44.3829 31.6341 44.3309 31.6014C44.2788 31.5623 44.2105 31.5362 44.1259 31.523C44.0674 31.4318 44.022 31.3341 43.9896 31.2299C43.9573 31.1191 43.9053 31.0182 43.8339 30.9269C43.8209 30.9008 43.8014 30.8813 43.7754 30.8682C43.7558 30.8552 43.7396 30.8324 43.7266 30.7998C43.7137 30.7607 43.7072 30.7217 43.7073 30.6826C43.7139 30.637 43.7107 30.598 43.6977 30.5654C43.6783 30.4677 43.6427 30.3863 43.5907 30.3211C43.5452 30.2494 43.503 30.1745 43.4641 30.0963C43.4513 29.9466 43.4091 29.8651 43.3375 29.852C43.2659 29.8389 43.1845 29.8583 43.0933 29.9102C43.0086 29.9557 42.9238 30.0142 42.8391 30.0857C42.7543 30.1572 42.6892 30.2059 42.6435 30.2319C42.5979 30.3034 42.5652 30.3978 42.5454 30.5149C42.5257 30.6321 42.4963 30.7427 42.457 30.8469C42.444 30.8729 42.4244 30.8956 42.3983 30.9151C42.3788 30.9346 42.3559 30.9704 42.3298 31.0225C42.2776 31.1266 42.2383 31.26 42.212 31.4227C42.1922 31.5854 42.1562 31.7318 42.1039 31.862C42.0646 31.9856 41.9734 32.0571 41.8301 32.0764C41.6868 32.0958 41.5567 32.0663 41.4396 31.988C41.3875 32.0205 41.3386 32.053 41.293 32.0855C41.2539 32.118 41.2083 32.1342 41.1562 32.1341C41.0846 32.1275 41.0163 32.0948 40.9513 32.0362C40.8862 31.984 40.8244 31.9481 40.7659 31.9285C40.7595 31.8308 40.7662 31.7332 40.7859 31.6355C40.8056 31.5314 40.8285 31.4338 40.8547 31.3427C40.8744 31.245 40.8941 31.1507 40.9137 31.0595C40.9399 30.9684 40.9628 30.8741 40.9825 30.7764C40.9956 30.7309 41.0055 30.6853 41.012 30.6398C41.0251 30.5942 41.0382 30.5519 41.0513 30.5129C41.0644 30.4738 41.084 30.438 41.1101 30.4055C41.1362 30.373 41.1557 30.3372 41.1688 30.2982C41.1819 30.2591 41.1852 30.2201 41.1788 30.181C41.1723 30.1419 41.1691 30.1029 41.1692 30.0638C41.1823 29.9857 41.2052 29.9109 41.2379 29.8393C41.2706 29.7677 41.3097 29.7059 41.3554 29.6539C41.3621 29.5042 41.3786 29.3675 41.4049 29.2438C41.4376 29.1137 41.4704 28.99 41.5031 28.8729C41.5423 28.7557 41.5783 28.6386 41.6111 28.5214C41.6503 28.3978 41.6798 28.2709 41.6995 28.1407C41.7779 28.0041 41.853 27.8382 41.9249 27.643C41.9576 27.5584 41.9838 27.4673 42.0035 27.3697C42.0297 27.272 42.0559 27.1809 42.082 27.0963C42.1082 27.0117 42.1409 26.9369 42.18 26.8719C42.2257 26.8068 42.2876 26.7581 42.3658 26.7256C42.3985 26.615 42.4606 26.5174 42.5518 26.4329C42.6496 26.3484 42.7636 26.3388 42.8937 26.4041C42.9197 26.4302 42.9391 26.466 42.9521 26.5116C42.9716 26.5507 42.9878 26.593 43.0007 26.6386C43.0137 26.6777 43.0266 26.7168 43.0396 26.7559C43.0591 26.795 43.0851 26.8275 43.1176 26.8536C43.1696 26.8993 43.2281 26.9221 43.2933 26.9222C43.3584 26.9223 43.4202 26.9419 43.4787 26.9811C43.5111 27.0658 43.524 27.1439 43.5174 27.2155C43.5173 27.2871 43.5042 27.3587 43.478 27.4303C43.4519 27.4954 43.4225 27.5604 43.3898 27.6255C43.3572 27.6906 43.331 27.7556 43.3114 27.8207C43.2983 27.8532 43.2917 27.8923 43.2917 27.9379C43.2916 27.9769 43.285 28.0127 43.272 28.0453C43.2589 28.0778 43.2458 28.1103 43.2327 28.1429C43.2262 28.1754 43.2164 28.2079 43.2033 28.2405C43.1836 28.3511 43.1639 28.4488 43.1442 28.5334C43.1311 28.6115 43.0854 28.6798 43.0072 28.7382C43.0396 28.8229 43.0395 28.888 43.0069 28.9336C42.9743 28.9791 42.9547 29.0409 42.948 29.119C43.0457 29.0801 43.1337 29.0281 43.2119 28.9631C43.2902 28.8981 43.3651 28.8331 43.4368 28.7681C43.5151 28.6966 43.5933 28.6284 43.6715 28.5634C43.7563 28.4984 43.8508 28.4432 43.955 28.3978C43.9876 28.3978 44.0201 28.3979 44.0527 28.3979C44.0917 28.3915 44.1275 28.3948 44.1601 28.4078C44.2122 28.3754 44.2578 28.3364 44.297 28.2908C44.3361 28.2453 44.372 28.1998 44.4046 28.1543C44.4437 28.1153 44.4763 28.073 44.5025 28.0275C44.5351 27.9754 44.571 27.9266 44.6101 27.8811C44.6753 27.8226 44.7437 27.7739 44.8154 27.7349C44.8936 27.696 44.9685 27.6505 45.0402 27.5985C45.1119 27.5465 45.1674 27.488 45.2065 27.423C45.2457 27.3514 45.2979 27.2896 45.3631 27.2376C45.4674 27.1597 45.5814 27.0947 45.7052 27.0428C45.829 26.9844 45.9463 26.9097 46.0571 26.8187C46.1679 26.7277 46.2885 26.6465 46.4188 26.5751C46.5556 26.5036 46.6827 26.4387 46.8 26.3803C46.8391 26.3608 46.8781 26.3609 46.9172 26.3804C46.9562 26.3935 46.9985 26.4164 47.044 26.449ZM51.6422 27.3343C51.4663 27.4187 51.2905 27.4608 51.1147 27.4605C50.9389 27.4603 50.7436 27.4535 50.5288 27.4402C50.4702 27.4401 50.4051 27.4433 50.3335 27.4497C50.2683 27.4561 50.2065 27.4625 50.1479 27.469C49.8418 27.5011 49.5845 27.6179 49.3758 27.8194C49.1672 28.0145 49.0138 28.2616 48.9157 28.561C48.883 28.6716 48.8568 28.7725 48.8371 28.8636C48.8174 28.9547 48.8597 29.0069 48.9638 29.02C49.0289 29.0331 49.094 29.0332 49.1591 29.0203C49.2242 29.0074 49.2894 28.9912 49.3545 28.9717C49.4262 28.9458 49.4946 28.9231 49.5597 28.9037C49.6248 28.8842 49.6899 28.8746 49.755 28.8747C49.7811 28.8747 49.8039 28.8812 49.8234 28.8943C49.8494 28.9073 49.8754 28.9139 49.9015 28.9139C50.0121 28.9271 50.1293 28.9208 50.2531 28.8949C50.3768 28.8625 50.4908 28.8594 50.5949 28.8856C50.6144 28.8921 50.6307 28.9052 50.6436 28.9247C50.6632 28.9378 50.6892 28.9508 50.7217 28.9639C50.8063 28.9966 50.9072 29.0195 51.0243 29.0327C51.1415 29.0394 51.2359 29.059 51.3074 29.0917C51.34 29.1047 51.3725 29.1308 51.405 29.1699C51.4375 29.2025 51.4537 29.2253 51.4537 29.2384C51.4536 29.31 51.4112 29.3555 51.3265 29.3749C51.2419 29.3943 51.1702 29.4072 51.1116 29.4137C51.0595 29.4201 51.0075 29.42 50.9554 29.4134C50.9033 29.4069 50.8512 29.41 50.7991 29.423C50.7079 29.4359 50.62 29.4553 50.5354 29.4812C50.4507 29.5006 50.3595 29.5265 50.2618 29.559C50.1511 29.5979 50.0468 29.6465 49.9491 29.705C49.8513 29.757 49.7439 29.7894 49.6266 29.8022C49.542 29.8151 49.4606 29.815 49.3825 29.8019C49.3044 29.7887 49.2198 29.7886 49.1286 29.8015C49.096 29.808 49.0635 29.8177 49.0309 29.8307C49.0048 29.8437 48.9755 29.8534 48.943 29.8598C48.8843 29.8728 48.8388 29.8825 48.8062 29.889C48.7802 29.8889 48.7574 29.8954 48.7378 29.9084C48.7248 29.9214 48.7085 29.9409 48.6889 29.9669C48.6758 29.9929 48.653 30.032 48.6203 30.084C48.5681 30.2011 48.5353 30.328 48.5221 30.4647C48.5089 30.5949 48.4956 30.7349 48.4824 30.8846C48.5539 30.9563 48.6221 31.015 48.6872 31.0607C48.7522 31.0998 48.8531 31.1195 48.9898 31.1197C49.0614 31.1198 49.1168 31.1133 49.1559 31.1004C49.2015 31.0809 49.2601 31.068 49.3317 31.0616C49.4033 31.0617 49.4749 31.0683 49.5465 31.0814C49.6181 31.088 49.6995 31.0881 49.7907 31.0817C49.9795 31.069 50.139 31.0464 50.2693 31.014C50.3995 30.9752 50.5591 30.9624 50.7479 30.9757C50.7869 30.9757 50.8553 30.9791 50.9529 30.9857C51.0571 30.9924 51.1612 31.0023 51.2654 31.0154C51.3695 31.0221 51.4607 31.0352 51.5387 31.0549C51.6234 31.0745 51.6656 31.1006 51.6656 31.1332C51.6655 31.1723 51.6394 31.2145 51.5873 31.26C51.5416 31.299 51.4862 31.338 51.4211 31.377C51.3624 31.4095 51.3005 31.4387 51.2354 31.4646C51.1767 31.4841 51.1377 31.497 51.1181 31.5035C51.0074 31.5359 50.9 31.5455 50.7958 31.5324C50.6917 31.5127 50.5778 31.5093 50.454 31.5221C50.3629 31.535 50.2815 31.5544 50.2098 31.5804C50.1381 31.6063 50.0665 31.6355 49.9948 31.668C49.9232 31.6939 49.8482 31.7231 49.7701 31.7555C49.6984 31.7815 49.6138 31.7976 49.5161 31.804C49.3859 31.8168 49.2752 31.833 49.184 31.8524C49.0928 31.8653 48.9854 31.8846 48.8616 31.9105C48.8095 31.9235 48.7607 31.9364 48.7151 31.9494C48.6695 31.9688 48.6206 31.985 48.5685 31.998C48.3797 32.0368 48.1746 32.043 47.9533 32.0167C47.7384 31.9968 47.5041 31.9998 47.2501 32.0254C47.0873 32.0447 46.9408 32.0673 46.8106 32.0932C46.6868 32.1256 46.5598 32.1352 46.4297 32.122C46.3841 32.1154 46.3418 32.1088 46.3027 32.1022C46.2572 32.1022 46.2181 32.0858 46.1856 32.0533C46.1987 32.0012 46.2281 31.9557 46.2737 31.9167C46.3194 31.8777 46.365 31.8419 46.4106 31.8094C46.4562 31.7704 46.4986 31.7314 46.5377 31.6924C46.5834 31.6469 46.6258 31.6046 46.6649 31.5656C46.704 31.5136 46.7367 31.4518 46.7628 31.3802C46.789 31.3021 46.8119 31.224 46.8316 31.146C46.8577 31.0679 46.8839 30.9963 46.91 30.9312C46.9427 30.8596 46.9819 30.7979 47.0275 30.7458C46.9756 30.6286 46.9758 30.4951 47.0281 30.3454C47.087 30.1958 47.1393 30.0396 47.1851 29.8769C47.1982 29.8379 47.2048 29.7988 47.2048 29.7598C47.2049 29.7207 47.2115 29.6849 47.2245 29.6524C47.2377 29.5873 47.267 29.532 47.3127 29.4865C47.3583 29.4344 47.3877 29.3824 47.4008 29.3303C47.4074 29.2978 47.4074 29.2652 47.401 29.2327C47.401 29.2001 47.4043 29.1676 47.4109 29.135C47.4241 29.0374 47.447 28.9463 47.4797 28.8617C47.5189 28.7706 47.5451 28.6893 47.5582 28.6177C47.5713 28.5656 47.5714 28.5135 47.5584 28.4614C47.552 28.4028 47.5521 28.3475 47.5587 28.2954C47.5719 28.1652 47.5981 28.0416 47.6374 27.9244C47.6831 27.8073 47.7094 27.7032 47.716 27.612C47.7226 27.5404 47.713 27.4623 47.6871 27.3776C47.6612 27.2929 47.6352 27.2278 47.6093 27.1822C47.5898 27.1496 47.5605 27.117 47.5215 27.0844C47.4825 27.0453 47.4435 27.0094 47.4045 26.9768C47.3655 26.9442 47.3297 26.9149 47.2972 26.8888C47.2712 26.8562 47.2583 26.8269 47.2583 26.8008C47.2649 26.7292 47.2943 26.6935 47.3463 26.6935C47.3984 26.6871 47.4473 26.6644 47.4929 26.6254C47.7273 26.6322 47.9486 26.6586 48.1569 26.7044C48.3717 26.7503 48.593 26.7799 48.8208 26.7933C48.9054 26.8064 48.9933 26.8065 49.0845 26.7936C49.1757 26.7742 49.2636 26.7613 49.3482 26.7549C49.4849 26.7486 49.6379 26.7684 49.8071 26.8142C49.9828 26.86 50.1553 26.8765 50.3246 26.8637C50.5525 26.851 50.7673 26.8448 50.9692 26.8451C51.171 26.8454 51.3826 26.8392 51.604 26.8265C51.643 26.8591 51.7015 26.8754 51.7797 26.8755C51.8578 26.8691 51.9359 26.8627 52.0141 26.8563C52.0987 26.8434 52.1736 26.8403 52.2387 26.8469C52.3103 26.8535 52.3591 26.8829 52.385 26.935C52.424 27.0262 52.4173 27.1043 52.3651 27.1693C52.313 27.2344 52.2413 27.2766 52.1501 27.296C52.1241 27.2959 52.0882 27.2991 52.0427 27.3056C51.9971 27.312 51.9482 27.3185 51.8961 27.3249C51.8441 27.3314 51.792 27.3345 51.7399 27.3345C51.6943 27.3344 51.6618 27.3344 51.6422 27.3343ZM57.6001 26.7958C57.5869 26.8999 57.5478 26.965 57.4826 26.9909C57.424 27.0169 57.3621 27.0461 57.2969 27.0786C57.2513 27.1111 57.2187 27.1533 57.1991 27.2054C57.1795 27.2575 57.1534 27.2965 57.1208 27.3225C57.0882 27.355 57.0393 27.381 56.9742 27.4004C56.9155 27.4133 56.8667 27.4263 56.8276 27.4392C56.7169 27.4716 56.5997 27.4878 56.476 27.4876C56.3588 27.4874 56.2546 27.4938 56.1634 27.5067C56.1113 27.5196 56.0592 27.5489 56.0071 27.5944C55.9549 27.6399 55.8995 27.6756 55.8409 27.7015C55.7823 27.721 55.7367 27.7372 55.7041 27.7502C55.6715 27.7632 55.6422 27.7794 55.6161 27.7989C55.5966 27.8184 55.577 27.8444 55.5574 27.8769C55.5378 27.9029 55.5117 27.942 55.4791 27.994C55.4464 28.0525 55.43 28.1372 55.4299 28.2478C55.4297 28.3585 55.4198 28.4496 55.4001 28.5212C55.3805 28.5798 55.3576 28.6481 55.3315 28.7262C55.3118 28.8043 55.2889 28.8889 55.2627 28.98C55.2496 29.0321 55.243 29.0907 55.2429 29.1558C55.2428 29.2144 55.2362 29.2697 55.2231 29.3218C55.2035 29.3868 55.1708 29.4356 55.1252 29.4681C55.0861 29.5006 55.0567 29.5592 55.0371 29.6438C55.024 29.6828 55.0174 29.7251 55.0173 29.7707C55.0238 29.8098 55.0237 29.8488 55.0171 29.8879C54.9909 30.0441 54.958 30.2133 54.9187 30.3956C54.8859 30.5778 54.853 30.7568 54.8202 30.9325C54.7874 31.0822 54.7514 31.2254 54.7121 31.3621C54.6793 31.4987 54.6368 31.6256 54.5846 31.7428C54.5325 31.7362 54.4804 31.7524 54.4282 31.7914C54.3761 31.8238 54.324 31.8466 54.2719 31.8595C54.2263 31.8725 54.1807 31.8789 54.1351 31.8788C54.0961 31.8788 54.057 31.895 54.0179 31.9275C53.9722 31.973 53.9135 32.0315 53.8418 32.103C53.7701 32.1811 53.7081 32.2266 53.656 32.2395C53.6104 32.2525 53.5681 32.2524 53.5291 32.2393C53.4966 32.2263 53.464 32.2164 53.4315 32.2099C53.3794 32.2098 53.3273 32.2097 53.2752 32.2097C53.2296 32.2161 53.1743 32.216 53.1092 32.2094C53.0833 32.1443 53.0736 32.0727 53.0802 31.9946C53.0869 31.9229 53.1 31.8513 53.1196 31.7798C53.1458 31.7082 53.172 31.6399 53.1981 31.5748C53.2308 31.5032 53.2537 31.4349 53.2668 31.3698C53.2799 31.3243 53.2865 31.2754 53.2865 31.2234C53.2931 31.1713 53.3062 31.1192 53.3258 31.0672C53.3455 31.0086 53.3748 30.9566 53.414 30.911C53.4596 30.859 53.4923 30.8005 53.5119 30.7354C53.5381 30.6638 53.5707 30.5792 53.61 30.4816C53.6492 30.384 53.6721 30.3027 53.6787 30.2376C53.6918 30.1595 53.6887 30.0846 53.6693 30.013C53.6564 29.9413 53.663 29.8632 53.6892 29.7786C53.7023 29.7396 53.7186 29.707 53.7382 29.681C53.7643 29.6485 53.7839 29.6062 53.797 29.5541C53.8166 29.4826 53.8297 29.4077 53.8364 29.3296C53.843 29.245 53.8529 29.1636 53.8661 29.0855C53.8792 29.0139 53.8923 28.9456 53.9054 28.8805C53.9186 28.8089 53.935 28.7373 53.9546 28.6657C53.9743 28.5811 53.9939 28.503 54.0136 28.4314C54.0397 28.3533 54.0594 28.2785 54.0725 28.2069C54.0921 28.1353 54.102 28.0669 54.1021 28.0018C54.1022 27.9302 54.0828 27.8553 54.0439 27.7771C54.0049 27.7055 53.9529 27.6533 53.8879 27.6207C53.8228 27.588 53.7512 27.5684 53.6731 27.5618C53.595 27.5552 53.5104 27.555 53.4192 27.5614C53.3281 27.5678 53.2402 27.5709 53.1555 27.5708C53.123 27.5512 53.0938 27.5154 53.0678 27.4633C53.0418 27.4112 53.0061 27.3753 52.9606 27.3557C52.8825 27.3296 52.7946 27.3164 52.6969 27.3163C52.6058 27.3161 52.5375 27.2802 52.492 27.2086C52.4531 27.1109 52.45 27.0164 52.4827 26.9253C52.5219 26.8343 52.5676 26.7692 52.6197 26.7302C52.8607 26.6915 53.1113 26.6951 53.3717 26.741C53.632 26.7805 53.8924 26.7971 54.1528 26.791C54.257 26.7846 54.3612 26.7652 54.4654 26.7328C54.5697 26.7004 54.6771 26.7006 54.7877 26.7333C54.8202 26.7463 54.8755 26.7692 54.9536 26.8019C55.0382 26.828 55.0968 26.8476 55.1293 26.8607C55.1618 26.8673 55.1944 26.8673 55.227 26.8608C55.2595 26.8544 55.2921 26.8544 55.3246 26.861C55.3767 26.861 55.4255 26.8709 55.4711 26.8905C55.5231 26.9036 55.5752 26.9102 55.6273 26.9102C55.6924 26.9103 55.7379 26.9104 55.764 26.9104C55.7966 26.904 55.8226 26.8975 55.8421 26.891C55.8682 26.8845 55.8942 26.878 55.9203 26.8716C55.9464 26.8586 55.9887 26.8489 56.0473 26.8425C56.0994 26.836 56.1515 26.8393 56.2035 26.8524C56.2556 26.8655 56.3077 26.8721 56.3598 26.8722C56.503 26.8789 56.6397 26.8628 56.77 26.8239C56.9068 26.7786 57.0403 26.7494 57.1705 26.7366C57.2421 26.7302 57.3138 26.7303 57.3854 26.7369C57.4635 26.737 57.5351 26.7566 57.6001 26.7958Z" fill="#7300FF"/>
</svg>
