<svg width="112" height="75" viewBox="0 0 112 75" fill="none" xmlns="http://www.w3.org/2000/svg">
<rect x="43.8559" y="15.2046" width="43.8562" height="15" rx="7.5" transform="rotate(-179.8 43.8559 15.2046)" fill="#FF7337"/>
<rect x="80.174" y="0.513306" width="15" height="60.3298" rx="7.5" transform="rotate(90.4875 80.174 0.513306)" fill="#7300FF"/>
<rect x="31.3954" y="18.6451" width="31" height="15" rx="7.5" transform="rotate(90.4875 31.3954 18.6451)" fill="#FF7337"/>
<rect x="57.6081" y="18.6451" width="47.4355" height="15" rx="7.5" transform="rotate(90.4875 57.6081 18.6451)" fill="#7300FF"/>
<path d="M72.2634 35.0504C72.3676 35.0766 72.4195 35.1548 72.4194 35.285C72.4192 35.4022 72.4451 35.4934 72.4971 35.5586C72.6274 35.4806 72.7903 35.4027 72.9857 35.3249C73.1811 35.2341 73.4025 35.2083 73.6499 35.2478C73.7147 35.4041 73.7471 35.5539 73.7469 35.6971C73.7467 35.8273 73.7335 35.9575 73.7072 36.0877C73.681 36.2179 73.6482 36.3545 73.609 36.4977C73.5697 36.6279 73.5369 36.771 73.5107 36.9273C73.4842 37.1876 73.4514 37.3894 73.4121 37.5326C73.3728 37.6757 73.327 37.845 73.2746 38.0402C73.2092 38.2484 73.1568 38.4567 73.1175 38.665C73.0911 38.8602 73.0583 39.049 73.019 39.2312C72.9796 39.4134 72.9273 39.5826 72.862 39.7388C72.7967 39.8819 72.6988 40.012 72.5684 40.129C72.5807 40.6629 72.5148 41.2031 72.3707 41.7498C72.2397 42.2965 72.0827 42.7845 71.8998 43.2139C71.8475 43.331 71.8018 43.4547 71.7625 43.5848C71.7363 43.715 71.7036 43.8256 71.6644 43.9167C71.6252 43.9948 71.573 44.0728 71.5078 44.1509C71.4556 44.2159 71.3969 44.2874 71.3317 44.3654C71.1489 44.7037 70.9531 45.0224 70.7443 45.3216C70.5486 45.6078 70.2683 45.8222 69.9035 45.9649C69.7993 46.0038 69.7016 46.0362 69.6104 46.0621C69.5323 46.088 69.4476 46.127 69.3563 46.1789C69.2391 46.2439 69.0827 46.3348 68.8872 46.4517C68.7047 46.5686 68.5288 46.6334 68.3596 46.6462C68.2684 46.6461 68.1643 46.6264 68.0471 46.5871C67.93 46.5479 67.8194 46.5282 67.7152 46.5281C67.598 46.5279 67.4678 46.5342 67.3245 46.547C67.1943 46.5729 67.0641 46.5857 66.9339 46.5855C66.8167 46.5853 66.706 46.5721 66.6019 46.5459C66.4978 46.5197 66.4132 46.4545 66.3483 46.3503C66.1921 46.324 66.0488 46.3563 65.9184 46.4473C65.7881 46.5382 65.6513 46.5836 65.5081 46.5834C65.3519 46.5701 65.2152 46.5113 65.0982 46.407C64.9942 46.3027 64.8706 46.2179 64.7275 46.1525C64.6362 46.2045 64.5516 46.2239 64.4735 46.2108C64.3954 46.2106 64.3107 46.2235 64.2195 46.2494C64.1415 46.1972 64.0634 46.1581 63.9853 46.1319C63.9072 46.1188 63.8291 46.0861 63.7511 46.0339C63.608 45.9165 63.4976 45.7666 63.4197 45.5842C63.3549 45.3888 63.2966 45.1869 63.2448 44.9785C63.1931 44.757 63.1348 44.5486 63.07 44.3532C63.0182 44.1448 62.9338 43.9689 62.8169 43.8255C62.8563 43.5521 62.9153 43.2983 62.9938 43.064C63.0722 42.8298 63.1572 42.602 63.2487 42.3808C63.288 42.2246 63.3078 42.0554 63.308 41.8731C63.3213 41.6778 63.3281 41.489 63.3284 41.3067C63.3417 41.1114 63.3615 40.9226 63.3878 40.7404C63.4142 40.5451 63.46 40.3694 63.5253 40.2133C63.5515 40.1482 63.6102 40.0832 63.7014 40.0182C63.7927 39.9402 63.8579 39.8687 63.897 39.8036C63.9362 39.6995 63.969 39.5824 63.9952 39.4522C64.0215 39.309 64.0477 39.1854 64.0739 39.0813C64.1002 38.912 64.1265 38.7037 64.1529 38.4564C64.1793 38.209 64.1992 37.9942 64.2125 37.8119C64.239 37.4734 64.2786 37.1545 64.3311 36.8551C64.3966 36.5427 64.5467 36.3215 64.7813 36.1917C64.9767 36.1399 65.1526 36.0685 65.3089 35.9776C65.4783 35.8867 65.6997 35.8675 65.9731 35.92C66.0382 35.9331 66.1163 35.9593 66.2073 35.9985C66.3115 36.0247 66.4026 36.0508 66.4807 36.077C66.6629 36.1294 66.806 36.1751 66.9102 36.2144C67.0273 36.2406 67.0987 36.3644 67.1245 36.5858C67.1374 36.6509 67.1307 36.7616 67.1044 36.9178C67.0782 37.061 67.0454 37.1846 67.0062 37.2887C66.9801 37.3538 66.9409 37.4123 66.8888 37.4643C66.8366 37.5163 66.7975 37.5749 66.7713 37.6399C66.7452 37.679 66.7321 37.7245 66.7321 37.7766C66.745 37.8287 66.7384 37.8743 66.7123 37.9133C66.6862 37.9783 66.634 38.0824 66.5556 38.2256C66.4773 38.3687 66.425 38.4728 66.3989 38.5378C66.3206 38.6809 66.2552 38.8306 66.2029 38.9867C66.1506 39.1429 66.0918 39.3121 66.0264 39.4943C65.9479 39.7155 65.8564 39.9628 65.7519 40.2361C65.6473 40.5094 65.5622 40.7827 65.4967 41.056C65.4442 41.3294 65.4178 41.5898 65.4175 41.8372C65.4171 42.0715 65.3972 42.3124 65.3578 42.5597C65.3316 42.6638 65.2989 42.7615 65.2597 42.8525C65.2205 42.9436 65.2138 43.0608 65.2396 43.2041C65.0962 43.3471 65.0504 43.4903 65.1023 43.6336C65.1542 43.7769 65.2321 43.9267 65.336 44.0831C65.414 44.1614 65.4985 44.2526 65.5895 44.3569C65.6805 44.4612 65.7845 44.5591 65.9016 44.6504C66.0186 44.7417 66.1552 44.8135 66.3114 44.8658C66.4676 44.9051 66.6434 44.9119 66.8387 44.8861C66.969 44.8603 67.1058 44.8084 67.2491 44.7305C67.3925 44.6526 67.5228 44.5812 67.6401 44.5162C67.9006 44.4124 68.1287 44.2826 68.3242 44.1266C68.5198 43.9576 68.6633 43.743 68.7549 43.4827C68.8071 43.3526 68.8334 43.2289 68.8335 43.1117C68.8468 42.9816 68.8469 42.8579 68.8341 42.7406C68.8343 42.6104 68.8345 42.4802 68.8347 42.35C68.8479 42.2068 68.8872 42.0571 68.9525 41.901C69.0178 41.7578 69.1157 41.6278 69.2461 41.5108C69.3764 41.3938 69.4613 41.2572 69.5006 41.101C69.5267 41.0229 69.5268 40.9513 69.5009 40.8862C69.488 40.808 69.4816 40.7299 69.4817 40.6518C69.482 40.4695 69.5083 40.2872 69.5606 40.105C69.613 39.9228 69.6719 39.7406 69.7372 39.5584C69.8157 39.3632 69.881 39.1745 69.9334 38.9923C69.9988 38.8101 70.0381 38.6278 70.0514 38.4456C70.0647 38.2763 70.0779 38.1331 70.0911 38.0159C70.1043 37.8988 70.1175 37.7946 70.1306 37.7035C70.1568 37.5994 70.183 37.5018 70.2092 37.4106C70.2354 37.3065 70.2811 37.1894 70.3464 37.0593C70.4117 36.9422 70.4705 36.8186 70.5227 36.6885C70.575 36.5453 70.6144 36.3696 70.6407 36.1613C70.6668 36.0962 70.68 36.0181 70.6801 35.927C70.6803 35.8228 70.6999 35.7317 70.7391 35.6536C70.7914 35.5365 70.8761 35.4455 70.9934 35.3806C71.1107 35.3026 71.241 35.2442 71.3843 35.2054C71.5276 35.1665 71.6774 35.1407 71.8336 35.1279C71.9899 35.1021 72.1332 35.0763 72.2634 35.0504ZM78.1544 40.0982C78.3236 40.1505 78.4929 40.1638 78.6622 40.138C78.8315 40.1122 79.0138 40.1125 79.209 40.1388C79.4173 40.1652 79.6061 40.2175 79.7752 40.2959C79.9444 40.3613 80.1527 40.3746 80.4002 40.3359C80.7518 40.2843 81.11 40.2328 81.4746 40.1812C81.8393 40.1167 82.1843 40.1367 82.5097 40.2414C82.5355 40.3846 82.5093 40.5083 82.431 40.6123C82.3658 40.7034 82.281 40.7619 82.1768 40.7877C82.1375 40.957 82.0657 41.074 81.9615 41.139C81.8703 41.1909 81.7595 41.2233 81.6293 41.2362C81.5121 41.249 81.3754 41.2553 81.2191 41.2551C81.0759 41.2418 80.9326 41.2612 80.7893 41.313C80.6851 41.3519 80.5808 41.4234 80.4765 41.5274C80.3722 41.6184 80.2419 41.6833 80.0856 41.7222C80.0205 41.7481 79.9488 41.761 79.8707 41.7609C79.7926 41.7478 79.7015 41.7476 79.5973 41.7605C79.5061 41.7734 79.4149 41.7928 79.3237 41.8187C79.2326 41.8446 79.1479 41.8705 79.0697 41.8964C78.9916 41.9093 78.9135 41.9092 78.8354 41.8961C78.7572 41.8829 78.6856 41.8893 78.6205 41.9153C78.5293 41.9412 78.4186 41.9801 78.2883 42.032C78.171 42.0839 78.0408 42.1032 77.8976 42.09C77.7541 42.246 77.6301 42.4477 77.5256 42.6949C77.421 42.9422 77.3295 43.2024 77.251 43.4758C77.1724 43.7491 77.1004 44.0289 77.0349 44.3153C76.9694 44.6017 76.8974 44.8685 76.8189 45.1158C76.7927 45.2199 76.7665 45.337 76.7402 45.4672C76.727 45.5974 76.7073 45.695 76.6812 45.7601C76.6551 45.7991 76.5639 45.8445 76.4075 45.8964C76.2643 45.9352 76.1014 45.9741 75.9191 46.0129C75.7368 46.0386 75.561 46.0579 75.3917 46.0707C75.2354 46.0835 75.1378 46.0703 75.0988 46.0312C74.9947 45.9659 74.9296 45.9723 74.9034 46.0504C74.8903 46.1415 74.8511 46.1936 74.786 46.2065C74.7078 46.2324 74.6167 46.2388 74.5125 46.2256C74.4084 46.2124 74.3107 46.2253 74.2195 46.2643C74.1544 46.2902 74.1022 46.3357 74.063 46.4007C74.0239 46.4658 73.9717 46.5178 73.9066 46.5568C73.7372 46.6477 73.5744 46.6735 73.4182 46.6342C73.249 46.5948 73.158 46.4775 73.1453 46.2822C73.1324 46.165 73.1652 46.0283 73.2435 45.8722C73.3219 45.703 73.4132 45.573 73.5175 45.482C73.5047 45.3387 73.5375 45.2151 73.6157 45.111C73.694 45.007 73.7463 44.8833 73.7725 44.7401C73.7857 44.6751 73.7858 44.6035 73.7729 44.5253C73.76 44.4472 73.7601 44.369 73.7732 44.2909C73.7995 44.1477 73.8843 43.9981 74.0278 43.8421C74.1713 43.673 74.2757 43.4974 74.3411 43.3152C74.4456 43.0289 74.5308 42.684 74.5965 42.2804C74.6752 41.8639 74.7734 41.4994 74.8911 41.1871C74.9303 41.083 74.9825 40.9919 75.0477 40.9139C75.126 40.8229 75.1847 40.7318 75.2239 40.6407C75.3285 40.3544 75.381 40.0746 75.3814 39.8011C75.3818 39.5277 75.3953 39.2347 75.4218 38.9223C75.435 38.8051 75.4677 38.701 75.5199 38.6099C75.5721 38.5058 75.6179 38.3887 75.6571 38.2586C75.7487 37.9853 75.8012 37.7119 75.8146 37.4385C75.8411 37.1521 75.9 36.8917 75.9915 36.6575C75.9787 36.5273 75.9398 36.4165 75.8748 36.3253C75.8099 36.234 75.7384 36.1558 75.6603 36.0906C75.5954 36.0124 75.5239 35.9341 75.4459 35.8559C75.3809 35.7647 75.342 35.6539 75.3292 35.5237C75.4204 35.4717 75.5116 35.4458 75.6027 35.446C75.6939 35.4331 75.785 35.4397 75.8761 35.4659C75.9672 35.4791 76.0584 35.4987 76.1495 35.5249C76.2406 35.5381 76.3317 35.5382 76.4229 35.5253C76.5011 35.4994 76.5923 35.467 76.6965 35.4281C76.8137 35.3892 76.9505 35.3829 77.1067 35.4091C77.1978 35.4353 77.2824 35.4745 77.3604 35.5267C77.4385 35.5659 77.5491 35.5921 77.6923 35.6053C77.8225 35.6316 77.9592 35.6448 78.1024 35.645C78.2457 35.6322 78.3758 35.6584 78.4929 35.7237C78.584 35.7499 78.6882 35.7826 78.8053 35.8218C78.9355 35.848 79.0331 35.8677 79.0982 35.8808C79.3585 35.9203 79.645 35.9272 79.9575 35.9016C80.2701 35.863 80.5956 35.857 80.9341 35.8836C81.0903 35.8968 81.24 35.9231 81.3832 35.9623C81.5264 36.0016 81.6761 36.0344 81.8323 36.0607C82.0536 36.087 82.3075 36.0939 82.594 36.0813C82.8935 36.0687 83.1734 36.0496 83.4339 36.024C83.6032 36.0112 83.7464 35.9984 83.8636 35.9856C83.9809 35.9597 84.0916 35.9403 84.1958 35.9274C84.3 35.9016 84.4041 35.8887 84.5083 35.8888C84.6255 35.876 84.7622 35.8762 84.9185 35.8895C84.9966 35.9026 85.0812 35.9157 85.1723 35.9289C85.2765 35.929 85.3285 35.9812 85.3283 36.0854C85.3411 36.2286 85.2889 36.3262 85.1717 36.3781C85.0544 36.43 84.9306 36.4884 84.8003 36.5533C84.6179 36.6442 84.455 36.7481 84.3116 36.8651C84.1812 36.9691 84.0378 37.0535 83.8815 37.1184C83.6991 37.1962 83.5232 37.2481 83.3539 37.2739C83.1846 37.2866 82.9827 37.3254 82.7483 37.3902C82.4617 37.4548 82.1817 37.513 81.9082 37.5647C81.6347 37.6033 81.3417 37.6094 81.0292 37.5829C80.86 37.5566 80.6778 37.5303 80.4825 37.504C80.2872 37.4646 80.1114 37.4709 79.9551 37.5227C79.8379 37.5486 79.7336 37.6396 79.6422 37.7957C79.5639 37.9388 79.453 38.0558 79.3097 38.1468C79.2445 38.1857 79.1793 38.2117 79.1142 38.2246C79.0491 38.2375 78.9905 38.257 78.9384 38.2829C78.8211 38.3609 78.7232 38.4714 78.6449 38.6145C78.5796 38.7577 78.5208 38.9138 78.4684 39.083C78.4161 39.2392 78.3638 39.4084 78.3114 39.5906C78.2591 39.7728 78.2067 39.942 78.1544 40.0982ZM87.8072 37.1437C88.0549 36.9748 88.27 36.7798 88.4526 36.5588C88.6353 36.3377 88.8114 36.1166 88.981 35.8955C89.0851 35.9086 89.1763 35.8893 89.2545 35.8373C89.3327 35.7853 89.4174 35.7464 89.5086 35.7205C89.6909 35.6687 89.8732 35.6754 90.0554 35.7408C90.2506 35.7932 90.4394 35.813 90.6217 35.8002C90.8431 35.7745 91.0515 35.7162 91.247 35.6254C91.4555 35.5346 91.6964 35.4893 91.9699 35.4897C92.061 35.4899 92.1456 35.5226 92.2236 35.5878C92.3017 35.64 92.3797 35.6726 92.4578 35.6858C92.562 35.712 92.6531 35.6991 92.7313 35.6471C92.8226 35.5952 92.9203 35.5693 93.0244 35.5694C93.2067 35.5697 93.3433 35.6285 93.4343 35.7458C93.5383 35.8632 93.6553 35.9805 93.7854 36.0979C93.85 36.3975 93.8561 36.6905 93.8036 36.9768C93.7511 37.2632 93.7376 37.5562 93.7632 37.8557C93.789 38.051 93.8147 38.2399 93.8405 38.4222C93.8793 38.6046 93.8986 38.7934 93.8983 38.9887C93.911 39.158 93.8977 39.3403 93.8584 39.5355C93.8321 39.7178 93.8253 39.9 93.8381 40.0824C93.851 40.1475 93.8704 40.2126 93.8964 40.2778C93.9223 40.3429 93.9287 40.408 93.9156 40.4731C93.8893 40.6163 93.8306 40.7269 93.7393 40.8049C93.6481 40.8829 93.5958 40.9869 93.5826 41.1171C93.5563 41.3124 93.5951 41.4948 93.699 41.6642C93.8159 41.8336 93.8873 42.0095 93.9131 42.1918C93.926 42.27 93.9193 42.3546 93.8931 42.4457C93.867 42.5368 93.8538 42.6214 93.8537 42.6996C93.8272 42.986 93.8268 43.305 93.8523 43.6566C93.8908 44.0082 93.9164 44.3338 93.929 44.6333C93.9288 44.7374 93.9352 44.8416 93.948 44.9458C93.9739 45.05 93.9738 45.1346 93.9477 45.1997C93.9345 45.2648 93.9019 45.3168 93.8498 45.3558C93.8107 45.3948 93.778 45.4403 93.7519 45.4924C93.7388 45.5575 93.7387 45.6486 93.7515 45.7658C93.7774 45.8831 93.7902 45.9937 93.7901 46.0979C93.7899 46.1891 93.7833 46.2737 93.7702 46.3518C93.757 46.4429 93.7504 46.521 93.7503 46.5861C93.7633 46.6252 93.7762 46.6643 93.7892 46.7034C93.8152 46.7555 93.8216 46.8011 93.8085 46.8401C93.7823 46.9573 93.691 47.0808 93.5345 47.2108C93.3911 47.3538 93.2413 47.4187 93.085 47.4055C93.0069 47.3923 92.8898 47.3271 92.7337 47.2096C92.5907 47.1053 92.4866 47.0205 92.4216 46.9553C92.3046 46.8119 92.2333 46.6295 92.2076 46.4081C92.1819 46.1867 92.1236 45.9848 92.0327 45.8023C91.9937 45.7372 91.9352 45.6785 91.8572 45.6263C91.7922 45.5611 91.7337 45.4894 91.6817 45.4112C91.6038 45.2679 91.5519 45.1245 91.5261 44.9813C91.5003 44.825 91.481 44.6752 91.4682 44.532C91.4684 44.3757 91.4621 44.226 91.4493 44.0827C91.4365 43.9265 91.4042 43.7702 91.3524 43.6138C91.3264 43.5617 91.2874 43.5161 91.2354 43.4769C91.1833 43.4378 91.1378 43.3857 91.0989 43.3205C91.0209 43.1902 90.969 43.0794 90.9431 42.9882C90.9172 42.897 90.8327 42.8253 90.6895 42.773C90.2338 42.7723 89.7716 42.7586 89.3029 42.7319C88.8472 42.7052 88.3979 42.7175 87.9552 42.769C87.851 42.7818 87.7598 42.8077 87.6816 42.8467C87.6034 42.8726 87.5123 42.892 87.4081 42.9049C87.356 42.9048 87.3039 42.8982 87.2519 42.8851C87.1998 42.872 87.1542 42.8654 87.1152 42.8654C86.9328 42.8911 86.7569 42.9755 86.5875 43.1185C86.418 43.2485 86.2876 43.3785 86.1963 43.5085C86.1441 43.5866 86.1114 43.6842 86.0982 43.8014C86.098 43.9055 86.0783 44.0097 86.0391 44.1138C85.9999 44.2179 85.9346 44.3154 85.8434 44.4065C85.7521 44.4845 85.7194 44.5886 85.7452 44.7188C85.6019 44.8228 85.478 44.9528 85.3736 45.1089C85.2822 45.265 85.1908 45.4276 85.0994 45.5968C85.008 45.7529 84.9036 45.9025 84.7862 46.0455C84.6819 46.1886 84.5515 46.2926 84.3952 46.3574C84.33 46.3834 84.2649 46.4158 84.1997 46.4548C84.1476 46.4938 84.0889 46.5132 84.0238 46.5131C83.9587 46.5 83.9197 46.4804 83.9067 46.4544C83.9068 46.4283 83.8678 46.3892 83.7897 46.337C83.7117 46.2848 83.6206 46.2261 83.5165 46.1608C83.3994 46.0956 83.2889 46.0238 83.1848 45.9455C83.0808 45.8672 82.9897 45.789 82.9117 45.7107C82.8207 45.6194 82.7557 45.5347 82.7168 45.4565C82.613 45.235 82.5937 45.0787 82.6589 44.9877C82.7242 44.8836 82.809 44.76 82.9134 44.617C83.0569 44.4088 83.22 44.1747 83.4027 43.9146C83.5854 43.6544 83.7485 43.4073 83.8921 43.1731C83.9704 43.043 84.0357 42.9194 84.0879 42.8023C84.1532 42.6852 84.2315 42.5746 84.3228 42.4706C84.4272 42.3275 84.5575 42.2105 84.7139 42.1196C84.8833 42.0287 85.0007 41.9117 85.066 41.7686C85.0922 41.7035 85.1053 41.6384 85.1054 41.5733C85.1055 41.4952 85.1186 41.4171 85.1448 41.339C85.2493 41.0788 85.4124 40.8446 85.6341 40.6366C85.8558 40.4286 86.0254 40.1945 86.143 39.9342C86.1691 39.8692 86.1822 39.8106 86.1823 39.7585C86.1954 39.6934 86.215 39.6284 86.2412 39.5633C86.4502 39.0818 86.7047 38.6525 87.0048 38.2754C87.3178 37.8982 87.5853 37.521 87.8072 37.1437ZM90.5417 37.0892C90.3853 37.2061 90.2484 37.3427 90.1309 37.4987C90.0266 37.6418 89.8832 37.7523 89.7008 37.8301C89.6485 37.9472 89.5832 38.0578 89.505 38.1619C89.4397 38.2659 89.3484 38.3504 89.2311 38.4154C89.1918 38.6237 89.1134 38.8058 88.996 38.9619C88.8786 39.105 88.7677 39.248 88.6633 39.3911C88.6111 39.4431 88.5655 39.5016 88.5263 39.5667C88.4872 39.6187 88.4415 39.6772 88.3893 39.7423C88.3241 39.8073 88.2589 39.8593 88.1938 39.8982C88.1286 39.9242 88.07 39.9631 88.0178 40.0151C87.9396 40.1192 87.8547 40.2623 87.7633 40.4445C87.6719 40.6266 87.587 40.7762 87.5087 40.8933C87.4435 40.9583 87.3783 41.0233 87.3131 41.0883C87.2479 41.1533 87.2283 41.2379 87.2541 41.3421C87.2931 41.4464 87.3711 41.5181 87.4882 41.5573C87.6054 41.5835 87.7355 41.6033 87.8787 41.6165C88.035 41.6167 88.1847 41.6104 88.328 41.5976C88.4712 41.5848 88.5884 41.5785 88.6796 41.5786C88.8619 41.5789 89.0442 41.5857 89.2264 41.599C89.4217 41.5993 89.604 41.593 89.7733 41.5802C89.9556 41.5675 90.1119 41.5352 90.2422 41.4833C90.3855 41.4314 90.4963 41.3535 90.5746 41.2494C90.7054 40.8329 90.7386 40.4163 90.6741 39.9995C90.6096 39.5698 90.5517 39.1465 90.5002 38.7298C90.4743 38.6125 90.455 38.4823 90.4422 38.339C90.4294 38.1958 90.4296 38.0656 90.4428 37.9484C90.456 37.8182 90.4952 37.6946 90.5605 37.5775C90.6388 37.4474 90.6521 37.2977 90.6002 37.1283L90.5417 37.0892ZM96.2125 45.7109C95.939 45.8016 95.6981 45.7687 95.49 45.6122C95.2819 45.4426 95.152 45.2471 95.1003 45.0256C95.0744 44.9214 95.0746 44.7652 95.101 44.5569C95.1273 44.3356 95.1667 44.1598 95.2189 44.0297C95.2712 43.8866 95.3822 43.7175 95.5517 43.5224C95.7213 43.3273 95.8518 43.1062 95.9433 42.8589C96.0348 42.6247 96.1068 42.4034 96.1591 42.1952C96.2246 41.9739 96.316 41.7983 96.4334 41.6682C96.5246 41.5772 96.6224 41.4992 96.7267 41.4343C96.831 41.3563 96.8897 41.2588 96.9029 41.1416C96.903 41.0374 96.8706 40.9462 96.8056 40.868C96.7537 40.7898 96.7343 40.6856 96.7475 40.5554C96.7477 40.4382 96.7805 40.2885 96.8458 40.1063C96.9242 39.9242 96.9961 39.7615 97.0614 39.6184C97.2051 39.3061 97.3162 38.9872 97.3948 38.6618C97.421 38.5707 97.4407 38.4666 97.4539 38.3494C97.4801 38.2193 97.5063 38.1216 97.5325 38.0566C97.5716 38.0045 97.6108 37.92 97.65 37.8028C97.7023 37.6857 97.761 37.5686 97.8263 37.4515C97.8916 37.3344 97.9634 37.2304 98.0416 37.1394C98.1199 37.0353 98.2047 36.9638 98.2959 36.9249C98.4001 36.886 98.5108 36.8601 98.628 36.8473C98.7583 36.8214 98.8755 36.7825 98.9797 36.7306C99.097 36.6917 99.1687 36.6462 99.1948 36.5942C99.2209 36.5421 99.2861 36.4902 99.3903 36.4382C99.4685 36.4123 99.5466 36.3994 99.6248 36.3995C99.7159 36.3996 99.8071 36.3868 99.8983 36.3609C100.002 36.3219 100.113 36.2635 100.231 36.1856C100.348 36.1076 100.485 36.1143 100.641 36.2057C100.706 36.2449 100.771 36.3621 100.835 36.5576C100.9 36.753 100.965 36.9354 101.03 37.1047C101.056 37.1959 101.088 37.3066 101.127 37.4369C101.179 37.5672 101.224 37.704 101.263 37.8473C101.302 37.9775 101.341 38.1013 101.38 38.2185C101.419 38.3227 101.451 38.4009 101.477 38.453C101.542 38.5833 101.587 38.7201 101.613 38.8634C101.639 39.0067 101.678 39.1369 101.73 39.2542C101.795 39.3845 101.86 39.5083 101.925 39.6256C101.99 39.7429 102.055 39.8732 102.119 40.0165C102.184 40.1598 102.243 40.2966 102.295 40.4269C102.346 40.5572 102.411 40.694 102.489 40.8374C102.541 40.9416 102.619 41.0394 102.723 41.1307C102.827 41.2089 102.892 41.3002 102.918 41.4044C102.957 41.5086 102.957 41.6258 102.918 41.756C102.878 41.8731 102.872 41.9838 102.898 42.088C102.936 42.2312 103.021 42.3486 103.151 42.4399C103.281 42.5312 103.398 42.6291 103.502 42.7334C103.567 42.8116 103.606 42.8898 103.619 42.9679C103.632 43.0461 103.69 43.0982 103.794 43.1244C103.821 42.8771 103.847 42.6623 103.874 42.48C103.913 42.2978 103.952 42.1221 103.992 41.9529C104.031 41.7706 104.07 41.5884 104.11 41.4062C104.149 41.2109 104.182 40.9961 104.208 40.7618C104.339 40.5927 104.456 40.4366 104.56 40.2935C104.665 40.1374 104.711 39.9357 104.698 39.6883C104.685 39.6101 104.659 39.532 104.62 39.4538C104.594 39.3756 104.588 39.291 104.601 39.1999C104.614 39.0697 104.641 38.9525 104.68 38.8484C104.719 38.7443 104.771 38.6142 104.837 38.458C104.876 38.3539 104.908 38.2498 104.935 38.1457C104.961 38.0285 104.994 37.9049 105.033 37.7747C105.072 37.6706 105.105 37.586 105.131 37.5209C105.17 37.4559 105.209 37.3974 105.248 37.3453C105.288 37.2803 105.32 37.2152 105.346 37.1502C105.372 37.0721 105.399 36.9614 105.425 36.8183C105.464 36.597 105.484 36.4082 105.484 36.2519C105.485 36.0957 105.517 35.9395 105.583 35.7833C105.687 35.5491 105.85 35.354 106.072 35.1981C106.306 35.0292 106.528 34.8928 106.737 34.7889C107.101 34.8025 107.4 34.9006 107.635 35.0832C107.869 35.2529 108.018 35.4614 108.083 35.7089C108.174 35.9434 108.167 36.1387 108.062 36.2948C107.958 36.4379 107.854 36.6005 107.749 36.7826C107.684 36.8997 107.632 37.0103 107.592 37.1144C107.566 37.2186 107.54 37.3227 107.514 37.4268C107.501 37.5179 107.481 37.6156 107.455 37.7197C107.442 37.8238 107.409 37.941 107.357 38.0711C107.317 38.2013 107.259 38.3119 107.18 38.4029C107.102 38.4809 107.05 38.5655 107.024 38.6566C107.063 38.8389 107.075 38.9887 107.062 39.1058C107.062 39.223 107.042 39.3337 107.003 39.4378C106.977 39.5289 106.944 39.6265 106.905 39.7306C106.879 39.8217 106.853 39.9258 106.826 40.043C106.8 40.1341 106.787 40.2252 106.787 40.3164C106.787 40.4075 106.774 40.4921 106.748 40.5702C106.708 40.7264 106.656 40.8696 106.591 40.9997C106.525 41.1298 106.46 41.2534 106.395 41.3705C106.303 41.5657 106.199 41.7478 106.081 41.9169C105.977 42.086 105.912 42.3138 105.885 42.6002C105.872 42.7825 105.859 42.9452 105.845 43.0884C105.845 43.2186 105.838 43.3423 105.825 43.4595C105.825 43.5767 105.805 43.7003 105.766 43.8305C105.74 43.9607 105.701 44.1169 105.648 44.2991C105.622 44.4032 105.583 44.5073 105.531 44.6114C105.491 44.7025 105.459 44.8001 105.432 44.9042C105.354 45.2426 105.243 45.5029 105.099 45.685C104.956 45.854 104.741 46.0295 104.454 46.2114C104.298 46.2502 104.141 46.289 103.985 46.3279C103.829 46.3667 103.672 46.386 103.516 46.3858C103.373 46.3855 103.236 46.3593 103.106 46.307C102.976 46.2678 102.865 46.1765 102.775 46.0331C102.71 45.9288 102.638 45.779 102.56 45.5836C102.496 45.3751 102.418 45.1732 102.327 44.9777C102.288 44.8865 102.243 44.8018 102.191 44.7236C102.152 44.6324 102.119 44.5412 102.093 44.4501C102.028 44.3067 101.983 44.183 101.957 44.0788C101.944 43.9746 101.905 43.8313 101.841 43.6489C101.75 43.3623 101.607 43.1472 101.412 43.0037C101.217 42.8602 101.048 42.7037 100.905 42.5342C100.892 42.404 100.873 42.2868 100.847 42.1826C100.821 42.0784 100.762 41.9937 100.671 41.9284C100.645 41.9023 100.613 41.8893 100.574 41.8892C100.535 41.8761 100.502 41.85 100.476 41.8109C100.437 41.7588 100.411 41.7002 100.398 41.635C100.385 41.5569 100.359 41.4983 100.32 41.4591C100.294 41.4331 100.255 41.3744 100.203 41.2832C100.152 41.192 100.1 41.1007 100.048 41.0095C100.009 40.9183 99.9632 40.8401 99.9113 40.7749C99.8593 40.6967 99.8203 40.6641 99.7942 40.6771C99.7291 40.677 99.6639 40.729 99.5987 40.8331C99.5464 40.9372 99.4877 41.0543 99.4224 41.1844C99.3701 41.3145 99.3178 41.4446 99.2655 41.5748C99.2133 41.6919 99.1676 41.7764 99.1284 41.8285C99.0632 41.9195 99.0109 42.0562 98.9716 42.2384C98.9453 42.4076 98.906 42.5443 98.8538 42.6484C98.7624 42.8045 98.6775 42.9606 98.5992 43.1168C98.5339 43.2729 98.5531 43.4422 98.657 43.6247C98.6569 43.7158 98.6307 43.7939 98.5786 43.8589C98.5394 43.9109 98.5328 44.0021 98.5586 44.1323C98.4803 44.2754 98.4019 44.4381 98.3235 44.6203C98.2582 44.8024 98.1862 45.0042 98.1078 45.2254C98.0685 45.3556 98.0358 45.4922 98.0095 45.6354C97.9833 45.7656 97.9505 45.8957 97.9113 46.0259C97.8721 46.143 97.8133 46.2471 97.735 46.3381C97.6698 46.4292 97.5786 46.4811 97.4614 46.494C97.3051 46.5198 97.1749 46.5001 97.0708 46.4348C96.9668 46.3695 96.8692 46.2913 96.7782 46.2C96.6872 46.1217 96.5962 46.037 96.5052 45.9457C96.4142 45.8414 96.3166 45.7631 96.2125 45.7109ZM61.3529 63.0147C61.3794 62.7153 61.4774 62.4485 61.647 62.2144C61.8297 61.9673 61.9668 61.7136 62.0583 61.4533C62.1107 61.2841 62.1435 61.1084 62.1568 60.9261C62.1831 60.7308 62.1964 60.542 62.1967 60.3597C62.21 60.1645 62.2298 59.9757 62.2561 59.7934C62.2824 59.5982 62.3283 59.4094 62.3937 59.2272C62.3287 59.1099 62.3029 58.9797 62.3161 58.8365C62.3293 58.6933 62.3361 58.5435 62.3363 58.3873C62.4015 58.2962 62.4538 58.1922 62.493 58.075C62.5323 57.9579 62.6235 57.8799 62.7668 57.8411C62.8974 57.5548 62.963 57.2619 62.9634 56.9624C62.9639 56.6499 62.9969 56.331 63.0625 56.0056C63.0756 55.9405 63.1017 55.8819 63.1409 55.8299C63.18 55.7779 63.2127 55.7193 63.2388 55.6543C63.3303 55.381 63.3763 55.0946 63.3768 54.7951C63.3772 54.4826 63.4298 54.1897 63.5343 53.9164C63.6125 53.8905 63.7102 53.8516 63.8275 53.7997C63.9448 53.7347 64.062 53.6763 64.1793 53.6244C64.3096 53.5595 64.4334 53.5076 64.5506 53.4687C64.6679 53.4298 64.7721 53.4169 64.8632 53.4301C64.9282 53.4562 64.9933 53.4954 65.0583 53.5476C65.1234 53.5867 65.2014 53.6389 65.2925 53.7042C65.3575 53.7433 65.416 53.789 65.468 53.8411C65.5331 53.8933 65.5981 53.939 65.6631 53.9782C65.7152 54.0043 65.7803 54.0304 65.8583 54.0566C65.9495 54.0697 66.008 54.0893 66.034 54.1154C66.047 54.1285 66.086 54.1741 66.151 54.2523C66.229 54.3306 66.3005 54.4153 66.3655 54.5065C66.4435 54.5978 66.515 54.6891 66.5799 54.7803C66.6449 54.8585 66.6839 54.9107 66.6969 54.9367C66.7098 55.0149 66.7031 55.106 66.677 55.2101C66.6508 55.3012 66.6116 55.3988 66.5593 55.5029C66.5201 55.594 66.4744 55.6916 66.4222 55.7957C66.383 55.8868 66.3503 55.9714 66.3241 56.0494C66.2849 56.1926 66.2456 56.3358 66.2063 56.479C66.1671 56.6091 66.1148 56.7458 66.0495 56.8889C65.9841 57.0581 65.9122 57.2533 65.8338 57.4745C65.7553 57.6957 65.7029 57.93 65.6765 58.1774C65.6502 58.3596 65.5783 58.4963 65.461 58.5872C65.3567 58.6782 65.2849 58.8083 65.2456 58.9775C65.2194 59.0947 65.2062 59.2184 65.206 59.3486C65.2058 59.4788 65.2056 59.609 65.2054 59.7392C65.2182 59.8564 65.2181 59.9736 65.2049 60.0908C65.2047 60.2079 65.1785 60.3186 65.1263 60.4227C65.0871 60.4877 65.0284 60.5397 64.9502 60.5787C64.8721 60.6046 64.8069 60.6501 64.7547 60.7151C64.6764 60.8452 64.6046 61.0078 64.5392 61.2031C64.4868 61.3983 64.4409 61.6066 64.4015 61.8279C64.3622 62.0361 64.3423 62.2509 64.342 62.4723C64.3547 62.6807 64.3935 62.8695 64.4583 63.0389C64.3929 63.2471 64.2755 63.4292 64.106 63.5852C63.9495 63.7413 63.7605 63.8647 63.539 63.9555C63.3175 64.0333 63.0766 64.072 62.8162 64.0716C62.5688 64.0843 62.3149 64.0448 62.0546 63.9533C61.9507 63.7969 61.8272 63.6535 61.6842 63.5231C61.5412 63.3796 61.4307 63.2102 61.3529 63.0147ZM77.7533 53.8007C77.7791 53.944 77.7464 54.0677 77.6551 54.1717C77.5768 54.2627 77.4726 54.3212 77.3423 54.347C77.3682 54.4382 77.4137 54.4969 77.4788 54.523C77.5438 54.5361 77.5894 54.5752 77.6153 54.6404C77.5108 54.8486 77.3348 55.0046 77.0873 55.1084C76.8528 55.1991 76.6052 55.2769 76.3447 55.3416C76.1884 55.3674 76.0192 55.3802 75.8369 55.3799C75.6676 55.3797 75.5049 55.3664 75.3486 55.3402C75.1273 55.3008 74.9191 55.2288 74.724 55.1244C74.5288 55.0069 74.3401 54.9611 74.1578 54.9868C74.1057 54.9998 74.047 55.0322 73.9818 55.0842C73.9297 55.1362 73.871 55.1752 73.8059 55.2011C73.6755 55.2921 73.5127 55.37 73.3173 55.4348C73.1349 55.4866 72.9916 55.545 72.8873 55.6099C72.5876 55.7788 72.3073 55.9867 72.0465 56.2337C71.7858 56.4807 71.512 56.6951 71.2253 56.877C71.1208 57.0852 71.0163 57.2934 70.9118 57.5016C70.8204 57.6967 70.7224 57.9245 70.6179 58.1847C70.5656 58.3018 70.5068 58.4254 70.4415 58.5555C70.3893 58.6727 70.35 58.7898 70.3238 58.9069C70.2976 59.0241 70.2714 59.1673 70.2451 59.3365C70.2318 59.5058 70.2055 59.662 70.1662 59.8051C70.14 59.9093 70.0943 60.0003 70.0291 60.0784C69.9769 60.1564 69.9572 60.254 69.9701 60.3713C69.996 60.4755 70.0479 60.5602 70.126 60.6254C70.217 60.6906 70.2755 60.7688 70.3014 60.86C70.3274 60.9122 70.3273 60.9707 70.3011 61.0358C70.288 61.0879 70.288 61.1465 70.3009 61.2116C70.3526 61.433 70.463 61.635 70.632 61.8176C70.814 62.0001 70.9635 62.1761 71.0805 62.3456C71.3539 62.372 71.5947 62.4179 71.8029 62.4833C72.0242 62.5358 72.252 62.5817 72.4863 62.6211C72.7078 62.5172 72.9293 62.4329 73.1507 62.3682C73.3852 62.3034 73.6327 62.2256 73.8933 62.1349C74.0887 62.0701 74.2776 61.9727 74.4601 61.8427C74.6556 61.6998 74.8576 61.6155 75.066 61.5897C75.105 61.5898 75.1506 61.6029 75.2026 61.629C75.2547 61.6421 75.3002 61.6422 75.3393 61.6292C75.4435 61.6163 75.5347 61.5774 75.6129 61.5124C75.6912 61.4474 75.7694 61.389 75.8476 61.337C75.9388 61.272 76.03 61.2201 76.1212 61.1811C76.2255 61.1422 76.3427 61.1359 76.4728 61.1621C76.6027 61.3837 76.622 61.5595 76.5306 61.6896C76.4523 61.8197 76.335 61.9432 76.1785 62.0601C76.0221 62.1641 75.8657 62.281 75.7093 62.411C75.5658 62.541 75.494 62.7102 75.4937 62.9185C75.3763 63.0485 75.2329 63.185 75.0634 63.328C74.8939 63.471 74.6984 63.5879 74.4769 63.6787C74.3857 63.7046 74.288 63.7305 74.1838 63.7564C74.0927 63.7693 74.008 63.7887 73.9298 63.8146C73.6563 63.9184 73.4022 64.0287 73.1676 64.1455C72.9331 64.2624 72.64 64.314 72.2885 64.3005C72.0802 64.3002 71.8914 64.2804 71.7222 64.241C71.579 64.2148 71.4423 64.169 71.3122 64.1037C71.1951 64.0384 71.065 63.9927 70.9218 63.9664C70.7395 63.9401 70.5573 63.9398 70.3749 63.9656C70.1926 63.9914 70.0233 63.9911 69.8671 63.9649C69.7109 63.9386 69.5482 63.8797 69.3791 63.7884C69.21 63.6839 69.0474 63.5795 68.8913 63.4751C68.7221 63.3837 68.5595 63.2989 68.4034 63.2205C68.2603 63.1291 68.1172 63.0443 67.9741 62.966C67.805 62.8485 67.6619 62.7051 67.545 62.5356C67.4411 62.3532 67.3111 62.1902 67.1551 62.0468C67.0904 61.7863 67.0647 61.5323 67.0781 61.2849C67.0915 61.0245 67.0919 60.7641 67.0793 60.5037C67.0666 60.2693 67.0214 60.0283 66.9436 59.7808C66.8789 59.5333 66.8597 59.312 66.886 59.1167C66.9122 59.0256 66.9449 58.928 66.9841 58.8239C67.0233 58.7198 67.0495 58.6091 67.0627 58.4919C67.089 58.3097 67.1153 58.147 67.1416 58.0038C67.1809 57.8476 67.2397 57.6979 67.318 57.5548C67.3702 57.4638 67.4289 57.3792 67.4942 57.3012C67.5724 57.2232 67.6441 57.1452 67.7094 57.0671C67.7876 56.9891 67.8528 56.9046 67.905 56.8135C67.9573 56.7224 67.99 56.6053 68.0032 56.4621C68.0815 56.358 68.1728 56.28 68.277 56.2281C68.3943 56.1762 68.4855 56.0982 68.5508 55.9941C68.59 55.9291 68.6096 55.864 68.6097 55.7989C68.6098 55.7338 68.6359 55.6688 68.6881 55.6037C68.7533 55.5257 68.8511 55.4412 68.9814 55.3503C69.1118 55.2593 69.2226 55.1813 69.3138 55.1164C69.5744 54.9735 69.8481 54.8437 70.1347 54.727C70.4214 54.5972 70.6885 54.4413 70.9362 54.2594C71.0924 54.2596 71.2422 54.2403 71.3855 54.2015C71.5418 54.1496 71.6851 54.0977 71.8154 54.0459C71.9587 53.981 72.102 53.9226 72.2453 53.8707C72.3887 53.8058 72.5385 53.7605 72.6948 53.7347C72.838 53.7218 72.9943 53.7221 73.1635 53.7354C73.3328 53.7356 73.4956 53.7293 73.6518 53.7165C73.8862 53.7039 74.1206 53.6977 74.355 53.6981C74.6024 53.6854 74.8237 53.6922 75.019 53.7186C75.1101 53.7317 75.2012 53.7644 75.2923 53.8166C75.3834 53.8558 75.481 53.8755 75.5852 53.8757C75.6763 53.8758 75.7675 53.8564 75.8587 53.8175C75.9629 53.7786 76.0606 53.7527 76.1518 53.7398C76.4122 53.7141 76.6792 53.7145 76.9526 53.741C77.226 53.7544 77.4929 53.7743 77.7533 53.8007ZM90.0198 53.1744C90.0845 53.4739 90.1167 53.7409 90.1163 53.9753C90.116 54.2097 90.0245 54.4048 89.842 54.5608C89.7898 54.6128 89.7312 54.6518 89.666 54.6778C89.6009 54.6907 89.5423 54.7231 89.4901 54.7752C89.3988 54.8662 89.3271 54.9702 89.2748 55.0873C89.2356 55.2045 89.1833 55.3151 89.1181 55.4191C88.7402 55.6009 88.3883 55.8217 88.0624 56.0816C87.7365 56.3285 87.3911 56.5559 87.0262 56.7637C86.8568 56.8546 86.6874 56.965 86.5179 57.095C86.3615 57.2249 86.2051 57.3419 86.0487 57.4458C85.9835 57.5108 85.9183 57.5759 85.8531 57.6409C85.8009 57.7059 85.7357 57.7644 85.6575 57.8164C85.5662 57.8813 85.4685 57.9268 85.3643 57.9526C85.2601 57.9655 85.1624 57.9914 85.0712 58.0303C84.9279 58.1213 84.8105 58.2253 84.7192 58.3423C84.6279 58.4594 84.517 58.5894 84.3866 58.7324C84.3861 59.071 84.4247 59.364 84.5025 59.6115C84.5933 59.846 84.6971 60.0741 84.814 60.2956C84.9309 60.5041 85.0412 60.7191 85.145 60.9406C85.2619 61.1621 85.3527 61.4097 85.4174 61.6832C85.6126 61.7746 85.7426 61.918 85.8074 62.1135C85.8852 62.3089 85.9956 62.4783 86.1387 62.6218C86.1776 62.6739 86.2297 62.713 86.2947 62.7392C86.3598 62.7523 86.4184 62.7849 86.4704 62.8371C86.5354 62.8893 86.5874 62.9545 86.6263 63.0326C86.6653 63.1108 86.7173 63.1825 86.7823 63.2477C86.8993 63.3521 87.0163 63.4434 87.1334 63.5217C87.2635 63.587 87.3806 63.6718 87.4846 63.7761C87.5886 63.8804 87.6926 63.9913 87.7966 64.1086C87.9006 64.2259 88.0437 64.3108 88.2259 64.3631C88.3428 64.5847 88.4727 64.7867 88.6157 64.9692C88.7586 65.1517 88.9602 65.2822 89.2205 65.3607C89.2464 65.4649 89.3049 65.5496 89.3959 65.6149C89.487 65.6931 89.5259 65.7713 89.5128 65.8494C89.4735 65.9926 89.3562 66.0705 89.1609 66.0833C88.9655 66.109 88.7377 66.1087 88.4773 66.0823C88.2299 66.0559 87.9826 66.0164 87.7353 65.964C87.501 65.9115 87.3252 65.8787 87.2081 65.8655C87.1821 65.8395 87.1496 65.8134 87.1105 65.7873C87.0845 65.7742 87.0585 65.7546 87.0325 65.7286C86.7331 65.7021 86.4792 65.6366 86.2711 65.5321C86.0629 65.4276 85.8612 65.3167 85.6661 65.1992C85.5752 65.0298 85.4778 64.8669 85.3738 64.7105C85.2699 64.5541 85.1464 64.4107 85.0034 64.2802C85.0035 64.1761 84.9841 64.0849 84.9452 64.0067C84.9193 63.9286 84.9064 63.8244 84.9066 63.6942C84.8025 63.6159 84.6985 63.5441 84.5944 63.4789C84.4904 63.4006 84.3537 63.3483 84.1845 63.322C84.0676 63.1395 83.9767 62.9441 83.9119 62.7357C83.8471 62.5142 83.7433 62.3122 83.6003 62.1297C83.5744 62.0776 83.5353 62.0385 83.4833 62.0124C83.4443 61.9863 83.4118 61.9406 83.3859 61.8755C83.3599 61.7973 83.347 61.7192 83.3471 61.6411C83.3603 61.5499 83.3539 61.4718 83.328 61.4067C83.2892 61.2113 83.2178 61.0484 83.1138 60.9181C83.0229 60.7747 82.9385 60.6248 82.8606 60.4685C82.835 60.169 82.7506 60.0061 82.6074 59.9798C82.4642 59.9536 82.3014 59.9924 82.119 60.0963C81.9495 60.1872 81.7801 60.3041 81.6106 60.4471C81.4411 60.5901 81.3108 60.6875 81.2196 60.7395C81.1282 60.8826 81.0628 61.0713 81.0234 61.3056C80.984 61.5399 80.9251 61.7612 80.8466 61.9694C80.8205 62.0214 80.7814 62.067 80.7293 62.1059C80.6901 62.1449 80.6445 62.2165 80.5922 62.3206C80.4877 62.5288 80.4092 62.7956 80.3567 63.121C80.3171 63.4465 80.2451 63.7393 80.1405 63.9996C80.062 64.2469 79.8795 64.3898 79.593 64.4285C79.3065 64.4671 79.0462 64.4081 78.812 64.2515C78.7078 64.3165 78.61 64.3814 78.5188 64.4464C78.4405 64.5114 78.3493 64.5438 78.2452 64.5437C78.102 64.5304 77.9653 64.4651 77.8353 64.3477C77.7053 64.2434 77.5817 64.1716 77.4645 64.1324C77.4518 63.937 77.4651 63.7417 77.5045 63.5465C77.5438 63.3382 77.5897 63.143 77.642 62.9607C77.6814 62.7655 77.7207 62.5767 77.7601 62.3945C77.8124 62.2123 77.8583 62.0236 77.8976 61.8283C77.9238 61.7372 77.9435 61.6461 77.9566 61.555C77.9828 61.4639 78.009 61.3793 78.0351 61.3012C78.0613 61.2231 78.1005 61.1515 78.1526 61.0865C78.2048 61.0215 78.244 60.9499 78.2701 60.8718C78.2963 60.7937 78.3029 60.7156 78.29 60.6375C78.2771 60.5593 78.2707 60.4812 78.2708 60.4031C78.2971 60.2469 78.3429 60.0972 78.4082 59.9541C78.4735 59.8109 78.5518 59.6873 78.6431 59.5833C78.6566 59.2839 78.6896 59.0105 78.742 58.7631C78.8075 58.5028 78.873 58.2555 78.9384 58.0213C79.0169 57.787 79.0889 57.5527 79.1543 57.3184C79.2328 57.0712 79.2918 56.8173 79.3312 56.557C79.4879 56.2838 79.6381 55.952 79.7819 55.5616C79.8473 55.3924 79.8996 55.2102 79.939 55.0149C79.9913 54.8197 80.0437 54.6375 80.096 54.4683C80.1484 54.2991 80.2137 54.1494 80.292 54.0193C80.3833 53.8893 80.5072 53.7918 80.6635 53.7269C80.729 53.5057 80.853 53.3105 81.0355 53.1415C81.2311 52.9726 81.459 52.9534 81.7192 53.084C81.7712 53.1361 81.8101 53.2078 81.836 53.299C81.875 53.3772 81.9074 53.4618 81.9333 53.553C81.9593 53.6312 81.9852 53.7094 82.0111 53.7875C82.0501 53.8657 82.102 53.9309 82.1671 53.9831C82.2711 54.0744 82.3882 54.1201 82.5184 54.1203C82.6486 54.1205 82.7723 54.1597 82.8893 54.238C82.9542 54.4074 82.98 54.5637 82.9668 54.7069C82.9666 54.8501 82.9403 54.9933 82.888 55.1365C82.8357 55.2666 82.777 55.3967 82.7117 55.5268C82.6464 55.6569 82.5941 55.7871 82.5548 55.9172C82.5287 55.9823 82.5156 56.0604 82.5154 56.1515C82.5153 56.2297 82.5022 56.3013 82.476 56.3663C82.4499 56.4314 82.4238 56.4965 82.3976 56.5615C82.3845 56.6266 82.3649 56.6917 82.3387 56.7568C82.2994 56.978 82.26 57.1733 82.2207 57.3425C82.1944 57.4987 82.1031 57.6353 81.9466 57.7523C82.0115 57.9216 82.0113 58.0518 81.9461 58.1429C81.8808 58.2339 81.8416 58.3576 81.8283 58.5138C82.0238 58.436 82.1997 58.3321 82.3561 58.2021C82.5126 58.0721 82.6625 57.9421 82.8059 57.8121C82.9624 57.6691 83.1188 57.5326 83.2753 57.4027C83.4447 57.2727 83.6337 57.1623 83.8422 57.0715C83.9073 57.0716 83.9724 57.0717 84.0375 57.0718C84.1156 57.0589 84.1872 57.0655 84.2523 57.0916C84.3566 57.0267 84.4478 56.9487 84.5261 56.8576C84.6044 56.7666 84.6761 56.6756 84.7413 56.5845C84.8196 56.5065 84.8848 56.422 84.937 56.3309C85.0023 56.2268 85.074 56.1293 85.1523 56.0383C85.2827 55.9213 85.4196 55.8238 85.5629 55.7459C85.7193 55.668 85.8691 55.5771 86.0125 55.4731C86.1559 55.3692 86.2668 55.2522 86.3451 55.1221C86.4234 54.9789 86.5278 54.8554 86.6581 54.7514C86.8667 54.5955 87.0947 54.4656 87.3423 54.3618C87.5899 54.245 87.8245 54.0956 88.0461 53.9136C88.2677 53.7317 88.5088 53.5693 88.7695 53.4264C89.0431 53.2836 89.2972 53.1538 89.5318 53.0369C89.6099 52.998 89.6881 52.9981 89.7661 53.0373C89.8442 53.0634 89.9288 53.1091 90.0198 53.1744ZM99.2164 54.9458C98.8646 55.1146 98.5129 55.1987 98.1614 55.1981C97.8098 55.1976 97.4192 55.184 96.9896 55.1574C96.8724 55.1572 96.7422 55.1635 96.5989 55.1763C96.4687 55.1891 96.345 55.202 96.2278 55.2148C95.6157 55.279 95.101 55.5126 94.6838 55.9157C94.2665 56.3057 93.9598 56.8 93.7636 57.3987C93.6982 57.6199 93.6458 57.8217 93.6064 58.0039C93.5671 58.1861 93.6516 58.2904 93.8599 58.3168C93.9901 58.343 94.1203 58.3432 94.2505 58.3174C94.3808 58.2915 94.511 58.2592 94.6413 58.2203C94.7846 58.1684 94.9214 58.123 95.0516 58.0842C95.1819 58.0453 95.3121 58.026 95.4423 58.0262C95.4944 58.0262 95.54 58.0393 95.579 58.0654C95.6311 58.0915 95.6831 58.1046 95.7352 58.1047C95.9565 58.1311 96.1909 58.1184 96.4384 58.0667C96.6859 58.002 96.9137 57.9958 97.122 58.0482C97.161 58.0613 97.1936 58.0873 97.2195 58.1264C97.2586 58.1525 97.3106 58.1787 97.3757 58.2048C97.5449 58.2702 97.7466 58.316 97.9809 58.3424C98.2153 58.3558 98.404 58.3951 98.5472 58.4604C98.6122 58.4866 98.6773 58.5388 98.7423 58.617C98.8073 58.6822 98.8397 58.7278 98.8397 58.7538C98.8395 58.8971 98.7547 58.9881 98.5854 59.0269C98.4161 59.0657 98.2728 59.0915 98.1556 59.1044C98.0514 59.1173 97.9472 59.1171 97.8431 59.1039C97.7389 59.0908 97.6348 59.0971 97.5306 59.123C97.3482 59.1488 97.1724 59.1876 97.003 59.2394C96.8337 59.2782 96.6514 59.33 96.4559 59.3948C96.2345 59.4726 96.026 59.57 95.8305 59.6869C95.635 59.7908 95.4201 59.8556 95.1857 59.8812C95.0164 59.907 94.8536 59.9068 94.6974 59.8805C94.5412 59.8543 94.3719 59.854 94.1896 59.8798C94.1245 59.8927 94.0593 59.9121 93.9942 59.9381C93.9421 59.964 93.8835 59.9835 93.8183 59.9964C93.7011 60.0223 93.6099 60.0417 93.5448 60.0546C93.4927 60.0545 93.4471 60.0675 93.408 60.0935C93.382 60.1195 93.3493 60.1585 93.3102 60.2105C93.2841 60.2625 93.2384 60.3406 93.1731 60.4447C93.0686 60.6789 93.0031 60.9327 92.9767 61.2061C92.9503 61.4665 92.9238 61.7464 92.8973 62.0458C93.0403 62.1893 93.1769 62.3067 93.307 62.398C93.4371 62.4763 93.6388 62.5157 93.9123 62.5161C94.0555 62.5163 94.1662 62.5034 94.2443 62.4775C94.3355 62.4386 94.4528 62.4127 94.596 62.3999C94.7393 62.4001 94.8825 62.4134 95.0257 62.4396C95.1689 62.4528 95.3316 62.4531 95.5139 62.4403C95.8916 62.4148 96.2107 62.3697 96.4712 62.305C96.7317 62.2273 97.0507 62.2017 97.4283 62.2283C97.5064 62.2284 97.6431 62.2351 97.8384 62.2485C98.0468 62.2618 98.2551 62.2816 98.4634 62.308C98.6717 62.3213 98.8539 62.3476 99.0101 62.3869C99.1793 62.4262 99.2639 62.4784 99.2638 62.5435C99.2637 62.6217 99.2115 62.7062 99.1072 62.7972C99.0159 62.8752 98.9051 62.9532 98.7748 63.0311C98.6575 63.096 98.5337 63.1544 98.4034 63.2063C98.2862 63.2452 98.208 63.2711 98.1689 63.2841C97.9475 63.3489 97.7326 63.3681 97.5243 63.3417C97.316 63.3024 97.0882 63.2955 96.8408 63.3212C96.6584 63.347 96.4956 63.3858 96.3523 63.4377C96.209 63.4895 96.0657 63.5479 95.9224 63.6128C95.779 63.6647 95.6292 63.7231 95.4729 63.7879C95.3296 63.8398 95.1603 63.8721 94.9649 63.8848C94.7045 63.9105 94.4831 63.9427 94.3007 63.9815C94.1184 64.0073 93.9035 64.046 93.656 64.0977C93.5518 64.1236 93.4541 64.1495 93.3629 64.1754C93.2717 64.2144 93.174 64.2468 93.0698 64.2727C92.6921 64.3502 92.2819 64.3626 91.8393 64.3099C91.4097 64.2702 90.9409 64.276 90.433 64.3273C90.1074 64.3659 89.8144 64.4111 89.5539 64.4628C89.3064 64.5275 89.0525 64.5467 88.7921 64.5202C88.701 64.5071 88.6164 64.4939 88.5382 64.4808C88.4471 64.4807 88.369 64.448 88.304 64.3828C88.3302 64.2787 88.3889 64.1876 88.4802 64.1096C88.5715 64.0316 88.6627 63.9601 88.754 63.8952C88.8452 63.8172 88.93 63.7392 89.0082 63.6612C89.0995 63.5702 89.1843 63.4856 89.2625 63.4076C89.3408 63.3036 89.4061 63.18 89.4584 63.0368C89.5107 62.8807 89.5565 62.7245 89.5958 62.5683C89.6481 62.4121 89.7004 62.269 89.7527 62.1388C89.818 61.9957 89.8963 61.8721 89.9876 61.7681C89.8838 61.5336 89.8842 61.2666 89.9888 60.9673C90.1064 60.668 90.211 60.3557 90.3027 60.0303C90.3288 59.9522 90.3419 59.8741 90.3421 59.796C90.3422 59.7178 90.3553 59.6462 90.3814 59.5812C90.4077 59.451 90.4664 59.3404 90.5577 59.2494C90.649 59.1454 90.7078 59.0413 90.734 58.9372C90.7471 58.8721 90.7472 58.807 90.7342 58.7418C90.7343 58.6767 90.741 58.6116 90.7541 58.5466C90.7804 58.3513 90.8262 58.1691 90.8916 57.9999C90.97 57.8177 91.0223 57.655 91.0486 57.5118C91.0748 57.4077 91.0749 57.3035 91.049 57.1993C91.0362 57.0821 91.0363 56.9715 91.0495 56.8673C91.076 56.6069 91.1284 56.3596 91.2069 56.1254C91.2984 55.8911 91.3508 55.6829 91.364 55.5006C91.3773 55.3574 91.358 55.2011 91.3061 55.0317C91.2543 54.8624 91.2024 54.7321 91.1505 54.6409C91.1115 54.5757 91.053 54.5105 90.975 54.4453C90.897 54.3671 90.819 54.2953 90.7409 54.2301C90.6629 54.1649 90.5914 54.1062 90.5263 54.054C90.4744 53.9888 90.4484 53.9302 90.4485 53.8781C90.4617 53.7349 90.5204 53.6634 90.6246 53.6635C90.7288 53.6507 90.8265 53.6053 90.9178 53.5273C91.3865 53.541 91.8291 53.5937 92.2456 53.6855C92.6752 53.7773 93.1178 53.8365 93.5735 53.8632C93.7427 53.8895 93.9185 53.8898 94.1008 53.864C94.2832 53.8252 94.459 53.7994 94.6283 53.7867C94.9018 53.774 95.2077 53.8136 95.5461 53.9052C95.8975 53.9969 96.2425 54.0299 96.5811 54.0044C97.0369 53.979 97.4666 53.9666 97.8702 53.9672C98.2739 53.9678 98.6971 53.9555 99.1398 53.9301C99.2178 53.9953 99.335 54.028 99.4912 54.0282C99.6475 54.0155 99.8038 54.0027 99.96 53.9899C100.129 53.9641 100.279 53.9578 100.409 53.971C100.553 53.9842 100.65 54.043 100.702 54.1472C100.78 54.3296 100.767 54.4859 100.662 54.6159C100.558 54.746 100.415 54.8304 100.232 54.8692C100.18 54.8691 100.108 54.8755 100.017 54.8884C99.9261 54.9013 99.8285 54.9142 99.7243 54.927C99.6201 54.9399 99.5159 54.9462 99.4118 54.9461C99.3206 54.946 99.2555 54.9459 99.2164 54.9458ZM111.132 53.8697C111.106 54.078 111.027 54.2081 110.897 54.26C110.78 54.3119 110.656 54.3703 110.526 54.4352C110.435 54.5002 110.369 54.5847 110.33 54.6888C110.291 54.7929 110.239 54.871 110.174 54.923C110.108 54.988 110.011 55.0399 109.88 55.0788C109.763 55.1047 109.665 55.1305 109.587 55.1565C109.366 55.2212 109.131 55.2535 108.884 55.2531C108.65 55.2527 108.441 55.2655 108.259 55.2912C108.155 55.3171 108.05 55.3756 107.946 55.4665C107.842 55.5575 107.731 55.629 107.614 55.6809C107.497 55.7198 107.405 55.7522 107.34 55.7781C107.275 55.8041 107.216 55.8366 107.164 55.8755C107.125 55.9145 107.086 55.9666 107.047 56.0316C107.008 56.0836 106.956 56.1617 106.89 56.2658C106.825 56.3829 106.792 56.5521 106.792 56.7734C106.792 56.9948 106.772 57.177 106.732 57.3202C106.693 57.4373 106.647 57.574 106.595 57.7302C106.556 57.8864 106.51 58.0556 106.458 58.2378C106.431 58.3419 106.418 58.4591 106.418 58.5893C106.418 58.7065 106.405 58.8171 106.379 58.9213C106.339 59.0514 106.274 59.149 106.183 59.2139C106.105 59.2789 106.046 59.396 106.006 59.5652C105.98 59.6433 105.967 59.7279 105.967 59.8191C105.98 59.8972 105.98 59.9754 105.967 60.0535C105.914 60.3659 105.849 60.7043 105.77 61.0688C105.704 61.4333 105.639 61.7913 105.573 62.1427C105.507 62.4421 105.435 62.7285 105.357 63.0018C105.291 63.2751 105.206 63.5289 105.102 63.7631C104.998 63.7499 104.893 63.7823 104.789 63.8603C104.685 63.9253 104.581 63.9707 104.476 63.9966C104.385 64.0225 104.294 64.0354 104.203 64.0352C104.125 64.0351 104.047 64.0676 103.968 64.1325C103.877 64.2235 103.76 64.3406 103.616 64.4836C103.473 64.6396 103.349 64.7306 103.245 64.7565C103.154 64.7824 103.069 64.7822 102.991 64.7561C102.926 64.73 102.861 64.7103 102.796 64.6972C102.692 64.6971 102.587 64.6969 102.483 64.6967C102.392 64.7096 102.281 64.7095 102.151 64.6963C102.099 64.566 102.08 64.4227 102.093 64.2665C102.107 64.1233 102.133 63.9801 102.172 63.8369C102.224 63.6938 102.277 63.5571 102.329 63.427C102.394 63.2839 102.44 63.1472 102.466 63.017C102.492 62.9259 102.506 62.8283 102.506 62.7241C102.519 62.62 102.545 62.5158 102.584 62.4117C102.624 62.2946 102.682 62.1905 102.761 62.0995C102.852 61.9955 102.917 61.8784 102.956 61.7482C103.009 61.6051 103.074 61.4359 103.152 61.2407C103.231 61.0455 103.277 60.8828 103.29 60.7526C103.316 60.5964 103.31 60.4467 103.271 60.3034C103.245 60.1601 103.258 60.0039 103.311 59.8347C103.337 59.7566 103.37 59.6915 103.409 59.6395C103.461 59.5745 103.5 59.4899 103.526 59.3858C103.566 59.2426 103.592 59.0929 103.605 58.9367C103.618 58.7674 103.638 58.6047 103.664 58.4485C103.691 58.3053 103.717 58.1686 103.743 58.0384C103.769 57.8953 103.802 57.7521 103.841 57.6089C103.881 57.4397 103.92 57.2835 103.959 57.1403C104.012 56.9842 104.051 56.8345 104.077 56.6913C104.116 56.5481 104.136 56.4114 104.136 56.2812C104.137 56.138 104.098 55.9882 104.02 55.8318C103.942 55.6885 103.838 55.5842 103.708 55.5189C103.578 55.4536 103.435 55.4143 103.278 55.401C103.122 55.3878 102.953 55.3875 102.77 55.4003C102.588 55.413 102.412 55.4193 102.243 55.419C102.178 55.3799 102.12 55.3082 102.068 55.2039C102.016 55.0997 101.944 55.028 101.853 54.9888C101.697 54.9365 101.521 54.9102 101.326 54.9099C101.144 54.9096 101.007 54.8378 100.916 54.6944C100.838 54.499 100.832 54.3102 100.897 54.128C100.976 53.9458 101.067 53.8157 101.171 53.7378C101.653 53.6603 102.155 53.6676 102.675 53.7595C103.196 53.8384 103.717 53.8717 104.238 53.8595C104.446 53.8468 104.654 53.808 104.863 53.7432C105.071 53.6784 105.286 53.6787 105.507 53.7442C105.572 53.7703 105.683 53.8161 105.839 53.8814C106.008 53.9337 106.125 53.973 106.191 53.9991C106.256 54.0122 106.321 54.0123 106.386 53.9994C106.451 53.9865 106.516 53.9866 106.581 53.9997C106.685 53.9998 106.783 54.0195 106.874 54.0587C106.978 54.0849 107.082 54.0981 107.186 54.0982C107.317 54.0984 107.408 54.0986 107.46 54.0986C107.525 54.0857 107.577 54.0728 107.616 54.0598C107.668 54.0469 107.72 54.0339 107.773 54.021C107.825 53.995 107.909 53.9756 108.027 53.9628C108.131 53.9499 108.235 53.9566 108.339 53.9827C108.443 54.0089 108.547 54.0221 108.651 54.0223C108.938 54.0357 109.211 54.0036 109.472 53.9258C109.745 53.8351 110.012 53.7769 110.273 53.7512C110.416 53.7384 110.559 53.7386 110.703 53.7519C110.859 53.7521 111.002 53.7914 111.132 53.8697Z" fill="#7300FF"/>
</svg>
